HoltwoodOneSC.ufo
<glyph name="exclam" format="1">
  <advance width="1239"></advance>
  <unicode hex="0021"></unicode>
  <outline>
    <contour>
      <point x="236" y="1137" type="line"></point>
      <point x="236" y="1536" type="line"></point>
      <point x="1005" y="1536" type="line"></point>
      <point x="1005" y="1137" type="line"></point>
      <point x="877" y="512" type="line"></point>
      <point x="365" y="512" type="line"></point>
    </contour>
    <contour>
      <point x="301" y="384" type="line"></point>
      <point x="941" y="384" type="line"></point>
      <point x="941" y="0" type="line"></point>
      <point x="301" y="0" type="line"></point>
    </contour>
  </outline>
</glyph>
<glyph name="quotedbl" format="1">
  <advance width="1277"></advance>
  <unicode hex="0022"></unicode>
  <outline>
    <contour>
      <point x="1022" y="1413" type="line"></point>
      <point x="972" y="908" type="line"></point>
      <point x="756" y="908" type="line"></point>
      <point x="706" y="1413" type="line"></point>
      <point x="706" y="1536" type="line"></point>
      <point x="1022" y="1536" type="line"></point>
    </contour>
    <contour>
      <point x="569" y="1413" type="line"></point>
      <point x="519" y="908" type="line"></point>
      <point x="303" y="908" type="line"></point>
      <point x="253" y="1413" type="line"></point>
      <point x="253" y="1536" type="line"></point>
      <point x="569" y="1536" type="line"></point>
    </contour>
  </outline>
</glyph>
<glyph name="numbersign" format="1">
  <advance width="1664"></advance>
  <unicode hex="0023"></unicode>
  <outline>
    <contour>
      <point x="875" y="256" type="line"></point>
      <point x="619" y="256" type="line"></point>
      <point x="577" y="0" type="line"></point>
      <point x="193" y="0" type="line"></point>
      <point x="235" y="256" type="line"></point>
      <point x="129" y="256" type="line"></point>
      <point x="129" y="640" type="line"></point>
      <point x="299" y="640" type="line"></point>
      <point x="342" y="896" type="line"></point>
      <point x="184" y="896" type="line"></point>
      <point x="184" y="1280" type="line"></point>
      <point x="406" y="1280" type="line"></point>
      <point x="449" y="1536" type="line"></point>
      <point x="833" y="1536" type="line"></point>
      <point x="790" y="1280" type="line"></point>
      <point x="1046" y="1280" type="line"></point>
      <point x="1089" y="1536" type="line"></point>
      <point x="1473" y="1536" type="line"></point>
      <point x="1430" y="1280" type="line"></point>
      <point x="1528" y="1280" type="line"></point>
      <point x="1528" y="896" type="line"></point>
      <point x="1366" y="896" type="line"></point>
      <point x="1323" y="640" type="line"></point>
      <point x="1476" y="640" type="line"></point>
      <point x="1476" y="256" type="line"></point>
      <point x="1259" y="256" type="line"></point>
      <point x="1217" y="0" type="line"></point>
      <point x="833" y="0" type="line"></point>
    </contour>
    <contour>
      <point x="683" y="640" type="line"></point>
      <point x="939" y="640" type="line"></point>
      <point x="982" y="896" type="line"></point>
      <point x="726" y="896" type="line"></point>
    </contour>
  </outline>
</glyph>
<glyph name="dollar" format="1">
  <advance width="1645"></advance>
  <unicode hex="0024"></unicode>
  <outline>
    <contour>
      <point x="1487" y="482" type="curve" smooth="yes"></point>
      <point x="1487" y="162.954"></point>
      <point x="1282" y="23.4092"></point>
      <point x="1010" y="-22" type="curve"></point>
      <point x="1010" y="-385" type="line"></point>
      <point x="690" y="-385" type="line"></point>
      <point x="690" y="-36" type="line"></point>
      <point x="480" y="-23.46"></point>
      <point x="311" y="18.0498"></point>
      <point x="166" y="87" type="curve"></point>
      <point x="166" y="494" type="line"></point>
      <point x="467" y="494" type="line"></point>
      <point x="522" y="416.937"></point>
      <point x="602" y="354"></point>
      <point x="719" y="354" type="curve" smooth="yes"></point>
      <point x="811" y="354"></point>
      <point x="847" y="404.267"></point>
      <point x="847" y="502" type="curve"></point>
      <point x="487" y="535.469"></point>
      <point x="153" y="640.224"></point>
      <point x="153" y="1033" type="curve" smooth="yes"></point>
      <point x="153" y="1388.73"></point>
      <point x="371" y="1535.63"></point>
      <point x="690" y="1569" type="curve"></point>
      <point x="690" y="1920" type="line"></point>
      <point x="1010" y="1920" type="line"></point>
      <point x="1010" y="1567" type="line"></point>
      <point x="1183" y="1548.65"></point>
      <point x="1331" y="1511.48"></point>
      <point x="1454" y="1450" type="curve"></point>
      <point x="1454" y="1043" type="line"></point>
      <point x="1153" y="1043" type="line"></point>
      <point x="1099" y="1119.04"></point>
      <point x="1023" y="1183"></point>
      <point x="911" y="1183" type="curve" smooth="yes"></point>
      <point x="817" y="1183"></point>
      <point x="779" y="1121.97"></point>
      <point x="779" y="1024" type="curve"></point>
      <point x="1188" y="1009.97"></point>
      <point x="1487" y="899.744"></point>
    </contour>
  </outline>
</glyph>
<glyph name="percent" format="1">
  <advance width="3136"></advance>
  <unicode hex="0025"></unicode>
  <outline>
    <contour>
      <point x="1112" y="990" type="curve" smooth="yes"></point>
      <point x="1112" y="596.486"></point>
      <point x="891" y="378"></point>
      <point x="504" y="378" type="curve" smooth="yes"></point>
      <point x="116" y="378"></point>
      <point x="-102" y="596.046"></point>
      <point x="-102" y="990" type="curve" smooth="yes"></point>
      <point x="-102" y="1376.9"></point>
      <point x="121" y="1575"></point>
      <point x="504" y="1575" type="curve" smooth="yes"></point>
      <point x="885" y="1575"></point>
      <point x="1112" y="1376.38"></point>
    </contour>
    <contour>
      <point x="1430" y="1536" type="line"></point>
      <point x="2070" y="1536" type="line"></point>
      <point x="1686" y="0" type="line"></point>
      <point x="1046" y="0" type="line"></point>
    </contour>
    <contour>
      <point x="678" y="990" type="curve" smooth="yes"></point>
      <point x="678" y="1126.01"></point>
      <point x="641" y="1224"></point>
      <point x="504" y="1224" type="curve" smooth="yes"></point>
      <point x="365" y="1224"></point>
      <point x="331" y="1126.64"></point>
      <point x="331" y="990" type="curve" smooth="yes"></point>
      <point x="331" y="853.071"></point>
      <point x="365" y="753"></point>
      <point x="504" y="753" type="curve" smooth="yes"></point>
      <point x="641" y="753"></point>
      <point x="678" y="853.69"></point>
    </contour>
    <contour>
      <point x="3246" y="570" type="curve" smooth="yes"></point>
      <point x="3246" y="176.487"></point>
      <point x="3025" y="-42"></point>
      <point x="2638" y="-42" type="curve" smooth="yes"></point>
      <point x="2250" y="-42"></point>
      <point x="2031" y="176.046"></point>
      <point x="2031" y="570" type="curve" smooth="yes"></point>
      <point x="2031" y="956.902"></point>
      <point x="2255" y="1155"></point>
      <point x="2638" y="1155" type="curve" smooth="yes"></point>
      <point x="3019" y="1155"></point>
      <point x="3246" y="956.383"></point>
    </contour>
    <contour>
      <point x="2812" y="570" type="curve" smooth="yes"></point>
      <point x="2812" y="706.005"></point>
      <point x="2775" y="804"></point>
      <point x="2638" y="804" type="curve" smooth="yes"></point>
      <point x="2500" y="804"></point>
      <point x="2465" y="706.638"></point>
      <point x="2465" y="570" type="curve" smooth="yes"></point>
      <point x="2465" y="433.071"></point>
      <point x="2499" y="333"></point>
      <point x="2638" y="333" type="curve" smooth="yes"></point>
      <point x="2775" y="333"></point>
      <point x="2812" y="433.69"></point>
    </contour>
  </outline>
</glyph>
<glyph name="ampersand" format="1">
  <advance width="2632"></advance>
  <unicode hex="0026"></unicode>
  <outline>
    <contour>
      <point x="745" y="-29" type="curve" smooth="yes"></point>
      <point x="351" y="-29"></point>
      <point x="-44" y="111.78"></point>
      <point x="-44" y="487" type="curve" smooth="yes"></point>
      <point x="-44" y="686.824"></point>
      <point x="23" y="785.236"></point>
      <point x="160" y="847" type="curve"></point>
      <point x="48" y="886.873"></point>
      <point x="-24" y="991.122"></point>
      <point x="-24" y="1147" type="curve" smooth="yes"></point>
      <point x="-24" y="1289.51"></point>
      <point x="61" y="1355.12"></point>
      <point x="146" y="1418" type="curve" smooth="yes"></point>
      <point x="271" y="1510.17"></point>
      <point x="448" y="1559"></point>
      <point x="675" y="1559" type="curve" smooth="yes"></point>
      <point x="889" y="1559"></point>
      <point x="1066" y="1503.69"></point>
      <point x="1223" y="1433" type="curve"></point>
      <point x="1223" y="1113" type="line"></point>
      <point x="922" y="1113" type="line"></point>
      <point x="905" y="1191.36"></point>
      <point x="850" y="1251"></point>
      <point x="759" y="1251" type="curve" smooth="yes"></point>
      <point x="671" y="1251"></point>
      <point x="595" y="1197.08"></point>
      <point x="595" y="1110" type="curve" smooth="yes"></point>
      <point x="595" y="1039.83"></point>
      <point x="648" y="995"></point>
      <point x="720" y="995" type="curve" smooth="yes"></point>
      <point x="1378" y="995" type="line"></point>
      <point x="1378" y="1536" type="line"></point>
      <point x="2018" y="1536" type="line"></point>
      <point x="2018" y="996" type="line"></point>
      <point x="2402" y="996" type="line"></point>
      <point x="2402" y="700" type="line"></point>
      <point x="2019" y="700" type="line"></point>
      <point x="2018" y="686.667"></point>
      <point x="2018" y="673.667"></point>
      <point x="2018" y="661" type="curve" smooth="yes"></point>
      <point x="2018" y="504" type="line" smooth="yes"></point>
      <point x="2018" y="407.266"></point>
      <point x="2112" y="361"></point>
      <point x="2213" y="361" type="curve" smooth="yes"></point>
      <point x="2336" y="361"></point>
      <point x="2423" y="422.743"></point>
      <point x="2485" y="501" type="curve"></point>
      <point x="2786" y="501" type="line"></point>
      <point x="2786" y="95" type="line"></point>
      <point x="2596" y="16.2451"></point>
      <point x="2375" y="-29"></point>
      <point x="2098" y="-29" type="curve" smooth="yes"></point>
      <point x="1850" y="-29"></point>
      <point x="1663" y="31.9229"></point>
      <point x="1535" y="143" type="curve"></point>
      <point x="1330" y="20.1191"></point>
      <point x="1065" y="-29"></point>
    </contour>
    <contour>
      <point x="595" y="544" type="curve" smooth="yes"></point>
      <point x="595" y="410.275"></point>
      <point x="748" y="361"></point>
      <point x="890" y="361" type="curve" smooth="yes"></point>
      <point x="1085" y="361"></point>
      <point x="1247" y="400.49"></point>
      <point x="1378" y="460" type="curve"></point>
      <point x="1378" y="699" type="line"></point>
      <point x="720" y="699" type="line" smooth="yes"></point>
      <point x="638" y="699"></point>
      <point x="595" y="626.012"></point>
    </contour>
  </outline>
</glyph>
<glyph name="quotesingle" format="1">
  <advance width="968"></advance>
  <unicode hex="0027"></unicode>
  <outline>
    <contour>
      <point x="635" y="1413" type="line"></point>
      <point x="585" y="908" type="line"></point>
      <point x="369" y="908" type="line"></point>
      <point x="319" y="1413" type="line"></point>
      <point x="319" y="1536" type="line"></point>
      <point x="635" y="1536" type="line"></point>
    </contour>
  </outline>
</glyph>
<glyph name="parenleft" format="1">
  <advance width="1355"></advance>
  <unicode hex="0028"></unicode>
  <outline>
    <contour>
      <point x="203" y="768" type="curve" smooth="yes"></point>
      <point x="203" y="1236.48"></point>
      <point x="479" y="1657"></point>
      <point x="946" y="1657" type="curve" smooth="yes"></point>
      <point x="1019" y="1657"></point>
      <point x="1078" y="1650.33"></point>
      <point x="1144" y="1637" type="curve"></point>
      <point x="1144" y="1285" type="line"></point>
      <point x="908" y="1278.17"></point>
      <point x="811" y="1007.9"></point>
      <point x="811" y="768" type="curve" smooth="yes"></point>
      <point x="811" y="530.098"></point>
      <point x="907" y="254.434"></point>
      <point x="1144" y="251" type="curve"></point>
      <point x="1144" y="-101" type="line"></point>
      <point x="1078" y="-114.345"></point>
      <point x="1019" y="-121"></point>
      <point x="946" y="-121" type="curve" smooth="yes"></point>
      <point x="474" y="-121"></point>
      <point x="203" y="302.577"></point>
    </contour>
  </outline>
</glyph>
<glyph name="parenright" format="1">
  <advance width="1355"></advance>
  <unicode hex="0029"></unicode>
  <outline>
    <contour>
      <point x="1144" y="768" type="curve" smooth="yes"></point>
      <point x="1144" y="299.527"></point>
      <point x="867" y="-121"></point>
      <point x="401" y="-121" type="curve" smooth="yes"></point>
      <point x="327" y="-121"></point>
      <point x="268" y="-114.326"></point>
      <point x="203" y="-101" type="curve"></point>
      <point x="203" y="251" type="line"></point>
      <point x="438" y="257.841"></point>
      <point x="536" y="528.065"></point>
      <point x="536" y="768" type="curve" smooth="yes"></point>
      <point x="536" y="1007.83"></point>
      <point x="438" y="1278.26"></point>
      <point x="203" y="1285" type="curve"></point>
      <point x="203" y="1637" type="line"></point>
      <point x="268" y="1650.34"></point>
      <point x="327" y="1657"></point>
      <point x="401" y="1657" type="curve" smooth="yes"></point>
      <point x="872" y="1657"></point>
      <point x="1144" y="1233.42"></point>
    </contour>
  </outline>
</glyph>
<glyph name="asterisk" format="1">
  <advance width="1452"></advance>
  <unicode hex="002A"></unicode>
  <outline>
    <contour>
      <point x="878" y="349" type="line"></point>
      <point x="560" y="349" type="line"></point>
      <point x="560" y="474" type="line"></point>
      <point x="580" y="652" type="line"></point>
      <point x="452" y="528" type="line"></point>
      <point x="355" y="452" type="line"></point>
      <point x="159" y="700" type="line"></point>
      <point x="256" y="776" type="line"></point>
      <point x="511" y="940" type="line"></point>
      <point x="251" y="1096" type="line"></point>
      <point x="153" y="1170" type="line"></point>
      <point x="341" y="1423" type="line"></point>
      <point x="440" y="1350" type="line"></point>
      <point x="586" y="1217" type="line"></point>
      <point x="568" y="1414" type="line"></point>
      <point x="568" y="1537" type="line"></point>
      <point x="886" y="1537" type="line"></point>
      <point x="886" y="1412" type="line"></point>
      <point x="865" y="1234" type="line"></point>
      <point x="994" y="1358" type="line"></point>
      <point x="1091" y="1434" type="line"></point>
      <point x="1287" y="1186" type="line"></point>
      <point x="1190" y="1110" type="line"></point>
      <point x="933" y="947" type="line"></point>
      <point x="1195" y="790" type="line"></point>
      <point x="1293" y="716" type="line"></point>
      <point x="1105" y="463" type="line"></point>
      <point x="1006" y="536" type="line"></point>
      <point x="859" y="668" type="line"></point>
      <point x="878" y="472" type="line"></point>
    </contour>
  </outline>
</glyph>
<glyph name="plus" format="1">
  <advance width="1490"></advance>
  <unicode hex="002B"></unicode>
  <outline>
    <contour>
      <point x="228" y="896" type="line"></point>
      <point x="612" y="896" type="line"></point>
      <point x="612" y="1280" type="line"></point>
      <point x="868" y="1280" type="line"></point>
      <point x="868" y="896" type="line"></point>
      <point x="1252" y="896" type="line"></point>
      <point x="1252" y="640" type="line"></point>
      <point x="868" y="640" type="line"></point>
      <point x="868" y="256" type="line"></point>
      <point x="612" y="256" type="line"></point>
      <point x="612" y="640" type="line"></point>
      <point x="228" y="640" type="line"></point>
    </contour>
  </outline>
</glyph>
<glyph name="comma" format="1">
  <advance width="1219"></advance>
  <unicode hex="002C"></unicode>
  <outline>
    <contour>
      <point x="286" y="512" type="line"></point>
      <point x="926" y="512" type="line"></point>
      <point x="926" y="1" type="line" smooth="yes"></point>
      <point x="926" y="-307.724"></point>
      <point x="718" y="-452"></point>
      <point x="414" y="-452" type="curve"></point>
      <point x="414" y="-128" type="line"></point>
      <point x="489" y="-124.031"></point>
      <point x="541" y="-81.6582"></point>
      <point x="541" y="0" type="curve"></point>
      <point x="286" y="0" type="line"></point>
    </contour>
  </outline>
</glyph>
<glyph name="hyphen" format="1">
  <advance width="1122"></advance>
  <unicode hex="002D"></unicode>
  <outline>
    <contour>
      <point x="815" y="896" type="line"></point>
      <point x="815" y="640" type="line"></point>
      <point x="303" y="640" type="line"></point>
      <point x="303" y="896" type="line"></point>
    </contour>
  </outline>
</glyph>
<glyph name="period" format="1">
  <advance width="1219"></advance>
  <unicode hex="002E"></unicode>
  <outline>
    <contour>
      <point x="286" y="512" type="line"></point>
      <point x="926" y="512" type="line"></point>
      <point x="926" y="0" type="line"></point>
      <point x="286" y="0" type="line"></point>
    </contour>
  </outline>
</glyph>
<glyph name="slash" format="1">
  <advance width="1335"></advance>
  <unicode hex="002F"></unicode>
  <outline>
    <contour>
      <point x="537" y="1536" type="line"></point>
      <point x="1177" y="1536" type="line"></point>
      <point x="793" y="0" type="line"></point>
      <point x="153" y="0" type="line"></point>
    </contour>
  </outline>
</glyph>
<glyph name="zero" format="1">
  <advance width="1839"></advance>
  <unicode hex="0030"></unicode>
  <outline>
    <contour>
      <point x="1758" y="786" type="curve" smooth="yes"></point>
      <point x="1758" y="255.187"></point>
      <point x="1446" y="-29"></point>
      <point x="922" y="-29" type="curve" smooth="yes"></point>
      <point x="395" y="-29"></point>
      <point x="87" y="255.199"></point>
      <point x="87" y="786" type="curve" smooth="yes"></point>
      <point x="87" y="1296.85"></point>
      <point x="414" y="1559"></point>
      <point x="922" y="1559" type="curve" smooth="yes"></point>
      <point x="1433" y="1559"></point>
      <point x="1758" y="1299.91"></point>
    </contour>
    <contour>
      <point x="1118" y="786" type="curve" smooth="yes"></point>
      <point x="1118" y="952.1"></point>
      <point x="1089" y="1102"></point>
      <point x="922" y="1102" type="curve" smooth="yes"></point>
      <point x="754" y="1102"></point>
      <point x="727" y="952.081"></point>
      <point x="727" y="786" type="curve" smooth="yes"></point>
      <point x="727" y="619.523"></point>
      <point x="754" y="465"></point>
      <point x="922" y="465" type="curve" smooth="yes"></point>
      <point x="1089" y="465"></point>
      <point x="1118" y="619.492"></point>
    </contour>
  </outline>
</glyph>
<glyph name="one" format="1">
  <advance width="1335"></advance>
  <unicode hex="0031"></unicode>
  <outline>
    <contour>
      <point x="220" y="1458" type="line"></point>
      <point x="988" y="1536" type="line"></point>
      <point x="988" y="424" type="line"></point>
      <point x="1116" y="399" type="line"></point>
      <point x="1116" y="0" type="line"></point>
      <point x="220" y="0" type="line"></point>
      <point x="220" y="399" type="line"></point>
      <point x="348" y="424" type="line"></point>
      <point x="348" y="1024" type="line"></point>
      <point x="220" y="1024" type="line"></point>
    </contour>
  </outline>
</glyph>
<glyph name="two" format="1">
  <advance width="1645"></advance>
  <unicode hex="0032"></unicode>
  <outline>
    <contour>
      <point x="1476" y="1024" type="curve" smooth="yes"></point>
      <point x="1476" y="669.732"></point>
      <point x="1182" y="501.181"></point>
      <point x="899" y="429" type="curve"></point>
      <point x="1467" y="429" type="line"></point>
      <point x="1467" y="0" type="line"></point>
      <point x="187" y="0" type="line"></point>
      <point x="187" y="515" type="line"></point>
      <point x="405" y="594.494"></point>
      <point x="672" y="651.48"></point>
      <point x="797" y="825.5" type="curve" smooth="yes"></point>
      <point x="823" y="861.833"></point>
      <point x="836" y="902"></point>
      <point x="836" y="946" type="curve" smooth="yes"></point>
      <point x="836" y="1051.37"></point>
      <point x="771" y="1113"></point>
      <point x="668" y="1113" type="curve" smooth="yes"></point>
      <point x="583" y="1113"></point>
      <point x="520" y="1039.62"></point>
      <point x="488" y="973" type="curve"></point>
      <point x="187" y="973" type="line"></point>
      <point x="187" y="1433" type="line"></point>
      <point x="335" y="1511.17"></point>
      <point x="513" y="1559"></point>
      <point x="749" y="1559" type="curve" smooth="yes"></point>
      <point x="1142" y="1559"></point>
      <point x="1476" y="1411.74"></point>
    </contour>
  </outline>
</glyph>
<glyph name="three" format="1">
  <advance width="1723"></advance>
  <unicode hex="0033"></unicode>
  <outline>
    <contour>
      <point x="1570" y="467" type="curve" smooth="yes"></point>
      <point x="1570" y="116.18"></point>
      <point x="1213" y="-29"></point>
      <point x="850" y="-29" type="curve" smooth="yes"></point>
      <point x="572" y="-29"></point>
      <point x="351" y="16.2246"></point>
      <point x="162" y="95" type="curve"></point>
      <point x="162" y="501" type="line"></point>
      <point x="463" y="501" type="line"></point>
      <point x="525" y="422.617"></point>
      <point x="611" y="361"></point>
      <point x="735" y="361" type="curve" smooth="yes"></point>
      <point x="835" y="361"></point>
      <point x="930" y="407.263"></point>
      <point x="930" y="504" type="curve" smooth="yes"></point>
      <point x="930" y="574.167"></point>
      <point x="876" y="619"></point>
      <point x="805" y="619" type="curve" smooth="yes"></point>
      <point x="546" y="619" type="line"></point>
      <point x="546" y="915" type="line"></point>
      <point x="805" y="915" type="line" smooth="yes"></point>
      <point x="876" y="915"></point>
      <point x="930" y="959.832"></point>
      <point x="930" y="1030" type="curve" smooth="yes"></point>
      <point x="930" y="1126.73"></point>
      <point x="835" y="1173"></point>
      <point x="735" y="1173" type="curve" smooth="yes"></point>
      <point x="611" y="1173"></point>
      <point x="524" y="1111.26"></point>
      <point x="463" y="1033" type="curve"></point>
      <point x="162" y="1033" type="line"></point>
      <point x="162" y="1433" type="line"></point>
      <point x="352" y="1511.86"></point>
      <point x="570" y="1559"></point>
      <point x="850" y="1559" type="curve" smooth="yes"></point>
      <point x="1214" y="1559"></point>
      <point x="1570" y="1415.31"></point>
      <point x="1570" y="1067" type="curve" smooth="yes"></point>
      <point x="1570" y="911.562"></point>
      <point x="1495" y="807.846"></point>
      <point x="1385" y="767" type="curve"></point>
      <point x="1491" y="721.392"></point>
      <point x="1570" y="622.532"></point>
    </contour>
  </outline>
</glyph>
<glyph name="four" format="1">
  <advance width="1723"></advance>
  <unicode hex="0034"></unicode>
  <outline>
    <contour>
      <point x="87" y="848" type="line"></point>
      <point x="727" y="1536" type="line"></point>
      <point x="1367" y="1576" type="line"></point>
      <point x="1367" y="848" type="line"></point>
      <point x="1687" y="848" type="line"></point>
      <point x="1687" y="592" type="line"></point>
      <point x="1367" y="592" type="line"></point>
      <point x="1367" y="424" type="line"></point>
      <point x="1495" y="399" type="line"></point>
      <point x="1495" y="0" type="line"></point>
      <point x="599" y="0" type="line"></point>
      <point x="599" y="399" type="line"></point>
      <point x="727" y="424" type="line"></point>
      <point x="727" y="592" type="line"></point>
      <point x="87" y="592" type="line"></point>
    </contour>
    <contour>
      <point x="455" y="848" type="line"></point>
      <point x="727" y="848" type="line"></point>
      <point x="727" y="1168" type="line"></point>
    </contour>
  </outline>
</glyph>
<glyph name="five" format="1">
  <advance width="1645"></advance>
  <unicode hex="0035"></unicode>
  <outline>
    <contour>
      <point x="477" y="473" type="line"></point>
      <point x="539" y="394.542"></point>
      <point x="615" y="333"></point>
      <point x="739" y="333" type="curve" smooth="yes"></point>
      <point x="874" y="333"></point>
      <point x="938" y="368.754"></point>
      <point x="938" y="506" type="curve" smooth="yes"></point>
      <point x="938" y="634.274"></point>
      <point x="852" y="679"></point>
      <point x="725" y="679" type="curve" smooth="yes"></point>
      <point x="575" y="679"></point>
      <point x="433" y="657.749"></point>
      <point x="304" y="634" type="curve"></point>
      <point x="178" y="738" type="line"></point>
      <point x="178" y="1536" type="line"></point>
      <point x="1400" y="1536" type="line"></point>
      <point x="1400" y="1063" type="line"></point>
      <point x="1099" y="1063" type="line"></point>
      <point x="1032" y="1122.28"></point>
      <point x="942" y="1162"></point>
      <point x="827" y="1162" type="curve" smooth="yes"></point>
      <point x="669" y="1162" type="line"></point>
      <point x="654" y="927" type="line"></point>
      <point x="716" y="953.831"></point>
      <point x="793" y="972"></point>
      <point x="877" y="972" type="curve" smooth="yes"></point>
      <point x="1207" y="972"></point>
      <point x="1508" y="844.874"></point>
      <point x="1508" y="516" type="curve" smooth="yes"></point>
      <point x="1508" y="124.875"></point>
      <point x="1179" y="-29"></point>
      <point x="787" y="-29" type="curve" smooth="yes"></point>
      <point x="550" y="-29"></point>
      <point x="345" y="22.0645"></point>
      <point x="178" y="96" type="curve"></point>
      <point x="178" y="473" type="line"></point>
    </contour>
  </outline>
</glyph>
<glyph name="six" format="1">
  <advance width="1761"></advance>
  <unicode hex="0036"></unicode>
  <outline>
    <contour>
      <point x="1219" y="1052" type="line"></point>
      <point x="1154" y="1112.96"></point>
      <point x="1062" y="1173"></point>
      <point x="947" y="1173" type="curve" smooth="yes"></point>
      <point x="801" y="1173"></point>
      <point x="769" y="1066.96"></point>
      <point x="758" y="925" type="curve"></point>
      <point x="849" y="932.798"></point>
      <point x="927" y="935"></point>
      <point x="1014" y="935" type="curve" smooth="yes"></point>
      <point x="1338" y="935"></point>
      <point x="1662" y="839.799"></point>
      <point x="1662" y="516" type="curve" smooth="yes"></point>
      <point x="1662" y="85.0059"></point>
      <point x="1330" y="-29"></point>
      <point x="892" y="-29" type="curve" smooth="yes"></point>
      <point x="355" y="-29"></point>
      <point x="112" y="229.209"></point>
      <point x="112" y="767" type="curve" smooth="yes"></point>
      <point x="112" y="1313.96"></point>
      <point x="384" y="1559"></point>
      <point x="932" y="1559" type="curve" smooth="yes"></point>
      <point x="1172" y="1559"></point>
      <point x="1365" y="1512.04"></point>
      <point x="1520" y="1433" type="curve"></point>
      <point x="1520" y="1052" type="line"></point>
    </contour>
    <contour>
      <point x="1092" y="516" type="curve" smooth="yes"></point>
      <point x="1092" y="626.051"></point>
      <point x="1036" y="650"></point>
      <point x="927" y="650" type="curve" smooth="yes"></point>
      <point x="853" y="650"></point>
      <point x="796" y="644.667"></point>
      <point x="756" y="634" type="curve"></point>
      <point x="765" y="499.09"></point>
      <point x="782" y="358"></point>
      <point x="917" y="358" type="curve" smooth="yes"></point>
      <point x="1037" y="358"></point>
      <point x="1092" y="393.985"></point>
    </contour>
  </outline>
</glyph>
<glyph name="seven" format="1">
  <advance width="1452"></advance>
  <unicode hex="0037"></unicode>
  <outline>
    <contour>
      <point x="1305" y="1152" type="line"></point>
      <point x="1153" y="797.165"></point>
      <point x="1022" y="419.272"></point>
      <point x="922" y="-1" type="curve"></point>
      <point x="263" y="-1" type="line"></point>
      <point x="359" y="422.128"></point>
      <point x="495" y="833.1"></point>
      <point x="687" y="1152" type="curve"></point>
      <point x="527" y="1152"></point>
      <point x="410" y="1092.83"></point>
      <point x="320" y="1024" type="curve"></point>
      <point x="153" y="1024" type="line"></point>
      <point x="153" y="1536" type="line"></point>
      <point x="1305" y="1536" type="line"></point>
    </contour>
  </outline>
</glyph>
<glyph name="eight" format="1">
  <advance width="1703"></advance>
  <unicode hex="0038"></unicode>
  <outline>
    <contour>
      <point x="847" y="1559" type="curve" smooth="yes"></point>
      <point x="1208" y="1559"></point>
      <point x="1532" y="1478.31"></point>
      <point x="1532" y="1130" type="curve" smooth="yes"></point>
      <point x="1532" y="960.649"></point>
      <point x="1421" y="857.723"></point>
      <point x="1304" y="788" type="curve"></point>
      <point x="1436" y="725.086"></point>
      <point x="1582" y="624.028"></point>
      <point x="1582" y="436" type="curve" smooth="yes"></point>
      <point x="1582" y="49.3818"></point>
      <point x="1227" y="-29"></point>
      <point x="829" y="-29" type="curve" smooth="yes"></point>
      <point x="444" y="-29"></point>
      <point x="112" y="63.7588"></point>
      <point x="112" y="436" type="curve" smooth="yes"></point>
      <point x="112" y="624.014"></point>
      <point x="256" y="725.082"></point>
      <point x="389" y="788" type="curve"></point>
      <point x="271" y="857.867"></point>
      <point x="162" y="960.414"></point>
      <point x="162" y="1130" type="curve" smooth="yes"></point>
      <point x="162" y="1478.76"></point>
      <point x="485" y="1559"></point>
    </contour>
    <contour>
      <point x="682" y="1060" type="curve" smooth="yes"></point>
      <point x="682" y="951.564"></point>
      <point x="739" y="923"></point>
      <point x="847" y="923" type="curve" smooth="yes"></point>
      <point x="954" y="923"></point>
      <point x="1012" y="951.562"></point>
      <point x="1012" y="1060" type="curve" smooth="yes"></point>
      <point x="1012" y="1174.62"></point>
      <point x="960" y="1210"></point>
      <point x="847" y="1210" type="curve" smooth="yes"></point>
      <point x="733" y="1210"></point>
      <point x="682" y="1174.67"></point>
    </contour>
    <contour>
      <point x="1032" y="480" type="curve" smooth="yes"></point>
      <point x="1032" y="609.722"></point>
      <point x="975" y="652"></point>
      <point x="847" y="652" type="curve" smooth="yes"></point>
      <point x="718" y="652"></point>
      <point x="662" y="609.724"></point>
      <point x="662" y="480" type="curve" smooth="yes"></point>
      <point x="662" y="360.605"></point>
      <point x="728" y="337"></point>
      <point x="847" y="337" type="curve" smooth="yes"></point>
      <point x="965" y="337"></point>
      <point x="1032" y="360.604"></point>
    </contour>
  </outline>
</glyph>
<glyph name="nine" format="1">
  <advance width="1761"></advance>
  <unicode hex="0039"></unicode>
  <outline>
    <contour>
      <point x="530" y="503" type="line"></point>
      <point x="592" y="424.617"></point>
      <point x="678" y="363"></point>
      <point x="802" y="363" type="curve" smooth="yes"></point>
      <point x="956" y="363"></point>
      <point x="981" y="479.339"></point>
      <point x="991" y="630" type="curve"></point>
      <point x="908" y="612.493"></point>
      <point x="826" y="610"></point>
      <point x="731" y="610" type="curve" smooth="yes"></point>
      <point x="404" y="610"></point>
      <point x="87" y="698.177"></point>
      <point x="87" y="1020" type="curve" smooth="yes"></point>
      <point x="87" y="1436.26"></point>
      <point x="406" y="1559"></point>
      <point x="857" y="1559" type="curve" smooth="yes"></point>
      <point x="1389" y="1559"></point>
      <point x="1637" y="1303.1"></point>
      <point x="1637" y="769" type="curve" smooth="yes"></point>
      <point x="1637" y="219.189"></point>
      <point x="1367" y="-29"></point>
      <point x="817" y="-29" type="curve" smooth="yes"></point>
      <point x="580" y="-29"></point>
      <point x="377" y="12.2793"></point>
      <point x="229" y="97" type="curve"></point>
      <point x="229" y="503" type="line"></point>
    </contour>
    <contour>
      <point x="657" y="1020" type="curve" smooth="yes"></point>
      <point x="657" y="914.772"></point>
      <point x="717" y="894"></point>
      <point x="822" y="894" type="curve" smooth="yes"></point>
      <point x="895" y="894"></point>
      <point x="952" y="899.333"></point>
      <point x="993" y="910" type="curve"></point>
      <point x="982" y="1048.07"></point>
      <point x="971" y="1207"></point>
      <point x="832" y="1207" type="curve" smooth="yes"></point>
      <point x="692" y="1207"></point>
      <point x="657" y="1161.79"></point>
    </contour>
  </outline>
</glyph>
<glyph name="colon" format="1">
  <advance width="1219"></advance>
  <unicode hex="003A"></unicode>
  <outline>
    <contour>
      <point x="286" y="1408" type="line"></point>
      <point x="926" y="1408" type="line"></point>
      <point x="926" y="896" type="line"></point>
      <point x="286" y="896" type="line"></point>
    </contour>
    <contour>
      <point x="286" y="512" type="line"></point>
      <point x="926" y="512" type="line"></point>
      <point x="926" y="0" type="line"></point>
      <point x="286" y="0" type="line"></point>
    </contour>
  </outline>
</glyph>
<glyph name="semicolon" format="1">
  <advance width="1219"></advance>
  <unicode hex="003B"></unicode>
  <outline>
    <contour>
      <point x="278" y="1408" type="line"></point>
      <point x="918" y="1408" type="line"></point>
      <point x="918" y="896" type="line"></point>
      <point x="278" y="896" type="line"></point>
    </contour>
    <contour>
      <point x="282" y="512" type="line"></point>
      <point x="922" y="512" type="line"></point>
      <point x="922" y="1" type="line" smooth="yes"></point>
      <point x="922" y="-307.724"></point>
      <point x="714" y="-452"></point>
      <point x="410" y="-452" type="curve"></point>
      <point x="410" y="-128" type="line"></point>
      <point x="485" y="-124.031"></point>
      <point x="537" y="-81.6582"></point>
      <point x="537" y="0" type="curve"></point>
      <point x="282" y="0" type="line"></point>
    </contour>
  </outline>
</glyph>
<glyph name="less" format="1">
  <advance width="1452"></advance>
  <unicode hex="003C"></unicode>
  <outline>
    <contour>
      <point x="677" y="627" type="line"></point>
      <point x="1221" y="464" type="line"></point>
      <point x="1221" y="-17" type="line"></point>
      <point x="228" y="357" type="line"></point>
      <point x="228" y="1047" type="line"></point>
      <point x="1221" y="1421" type="line"></point>
      <point x="1221" y="789" type="line"></point>
    </contour>
  </outline>
</glyph>
<glyph name="equal" format="1">
  <advance width="1258"></advance>
  <unicode hex="003D"></unicode>
  <outline>
    <contour>
      <point x="976" y="896" type="line"></point>
      <point x="976" y="640" type="line"></point>
      <point x="278" y="640" type="line"></point>
      <point x="278" y="896" type="line"></point>
    </contour>
    <contour>
      <point x="976" y="428" type="line"></point>
      <point x="976" y="172" type="line"></point>
      <point x="278" y="172" type="line"></point>
      <point x="278" y="428" type="line"></point>
    </contour>
  </outline>
</glyph>
<glyph name="greater" format="1">
  <advance width="1452"></advance>
  <unicode hex="003E"></unicode>
  <outline>
    <contour>
      <point x="236" y="789" type="line"></point>
      <point x="236" y="1421" type="line"></point>
      <point x="1229" y="1047" type="line"></point>
      <point x="1229" y="357" type="line"></point>
      <point x="236" y="-17" type="line"></point>
      <point x="236" y="464" type="line"></point>
      <point x="780" y="627" type="line"></point>
    </contour>
  </outline>
</glyph>
<glyph name="question" format="1">
  <advance width="1548"></advance>
  <unicode hex="003F"></unicode>
  <outline>
    <contour>
      <point x="302" y="856" type="line"></point>
      <point x="418" y="906.995"></point>
      <point x="753" y="935.559"></point>
      <point x="753" y="1087" type="curve" smooth="yes"></point>
      <point x="753" y="1164.17"></point>
      <point x="701" y="1214"></point>
      <point x="625" y="1214" type="curve" smooth="yes"></point>
      <point x="529" y="1214"></point>
      <point x="459" y="1165.54"></point>
      <point x="413" y="1104" type="curve"></point>
      <point x="112" y="1104" type="line"></point>
      <point x="112" y="1450" type="line"></point>
      <point x="269" y="1528.73"></point>
      <point x="459" y="1576"></point>
      <point x="704" y="1576" type="curve" smooth="yes"></point>
      <point x="1082" y="1576"></point>
      <point x="1394" y="1459.8"></point>
      <point x="1394" y="1087" type="curve" smooth="yes"></point>
      <point x="1394" y="788.537"></point>
      <point x="1186" y="683.637"></point>
      <point x="942" y="629" type="curve"></point>
      <point x="942" y="512" type="line"></point>
      <point x="305" y="512" type="line" smooth="yes"></point>
      <point x="304" y="511.333"></point>
      <point x="303" y="511"></point>
      <point x="302" y="511" type="curve"></point>
    </contour>
    <contour>
      <point x="302" y="383" type="line"></point>
      <point x="942" y="383" type="line"></point>
      <point x="942" y="-1" type="line"></point>
      <point x="302" y="-1" type="line"></point>
    </contour>
  </outline>
</glyph>
<glyph name="at" format="1">
  <advance width="1994"></advance>
  <unicode hex="0040"></unicode>
  <outline>
    <contour>
      <point x="1599" y="812" type="curve" smooth="yes"></point>
      <point x="1599" y="1146.12"></point>
      <point x="1288" y="1344"></point>
      <point x="953" y="1344" type="curve" smooth="yes"></point>
      <point x="620" y="1344"></point>
      <point x="389" y="1086.74"></point>
      <point x="389" y="758" type="curve" smooth="yes"></point>
      <point x="389" y="393.344"></point>
      <point x="668" y="201"></point>
      <point x="1030" y="201" type="curve" smooth="yes"></point>
      <point x="1223" y="201"></point>
      <point x="1408" y="231.259"></point>
      <point x="1559" y="281" type="curve"></point>
      <point x="1559" y="32" type="line"></point>
      <point x="1400" y="-12.5361"></point>
      <point x="1223" y="-40"></point>
      <point x="1029" y="-40" type="curve" smooth="yes"></point>
      <point x="516" y="-40"></point>
      <point x="120" y="248.341"></point>
      <point x="120" y="757" type="curve" smooth="yes"></point>
      <point x="120" y="1236.22"></point>
      <point x="478" y="1576"></point>
      <point x="952" y="1576" type="curve" smooth="yes"></point>
      <point x="1438" y="1576"></point>
      <point x="1865" y="1288.76"></point>
      <point x="1865" y="811" type="curve" smooth="yes"></point>
      <point x="1865" y="529.455"></point>
      <point x="1730" y="343"></point>
      <point x="1446" y="343" type="curve" smooth="yes"></point>
      <point x="1325" y="343"></point>
      <point x="1194" y="388.158"></point>
      <point x="1146" y="462" type="curve"></point>
      <point x="1067" y="400.211"></point>
      <point x="978" y="359"></point>
      <point x="858" y="359" type="curve" smooth="yes"></point>
      <point x="661" y="359"></point>
      <point x="538" y="549.426"></point>
      <point x="538" y="746" type="curve" smooth="yes"></point>
      <point x="538" y="1034.3"></point>
      <point x="691" y="1205"></point>
      <point x="977" y="1205" type="curve" smooth="yes"></point>
      <point x="1127" y="1205"></point>
      <point x="1257" y="1164.53"></point>
      <point x="1368" y="1118" type="curve"></point>
      <point x="1368" y="599" type="line" smooth="yes"></point>
      <point x="1368" y="553.206"></point>
      <point x="1421" y="533"></point>
      <point x="1470" y="533" type="curve" smooth="yes"></point>
      <point x="1573" y="533"></point>
      <point x="1599" y="696.426"></point>
    </contour>
    <contour>
      <point x="964" y="557" type="curve" smooth="yes"></point>
      <point x="1014" y="557"></point>
      <point x="1052" y="572.958"></point>
      <point x="1092" y="594" type="curve"></point>
      <point x="1092" y="1014" type="line"></point>
      <point x="1065" y="1017.62"></point>
      <point x="1031" y="1020"></point>
      <point x="1003" y="1020" type="curve" smooth="yes"></point>
      <point x="863" y="1020"></point>
      <point x="815" y="942.279"></point>
      <point x="815" y="796" type="curve" smooth="yes"></point>
      <point x="815" y="674.925"></point>
      <point x="845" y="557"></point>
    </contour>
  </outline>
</glyph>
<glyph name="A" format="1">
  <advance width="1781"></advance>
  <unicode hex="0041"></unicode>
  <outline>
    <contour>
      <point x="1153" y="0" type="line"></point>
      <point x="1099" y="258" type="line"></point>
      <point x="681" y="258" type="line"></point>
      <point x="628" y="0" type="line"></point>
      <point x="29" y="0" type="line"></point>
      <point x="29" y="494" type="line"></point>
      <point x="182" y="529" type="line"></point>
      <point x="477" y="1536" type="line"></point>
      <point x="1303" y="1536" type="line"></point>
      <point x="1599" y="529" type="line"></point>
      <point x="1752" y="504" type="line"></point>
      <point x="1752" y="0" type="line"></point>
    </contour>
    <contour>
      <point x="767" y="601" type="line"></point>
      <point x="1013" y="601" type="line"></point>
      <point x="890" y="1180" type="line"></point>
    </contour>
  </outline>
</glyph>
<glyph name="B" format="1">
  <advance width="1897"></advance>
  <unicode hex="0042"></unicode>
  <outline>
    <contour>
      <point x="1824" y="459" type="curve" smooth="yes"></point>
      <point x="1824" y="122.635"></point>
      <point x="1623" y="0"></point>
      <point x="1278" y="0" type="curve" smooth="yes"></point>
      <point x="87" y="0" type="line"></point>
      <point x="87" y="434" type="line"></point>
      <point x="245" y="459" type="line"></point>
      <point x="245" y="1114" type="line"></point>
      <point x="87" y="1139" type="line"></point>
      <point x="87" y="1536" type="line"></point>
      <point x="1409" y="1536" type="line"></point>
      <point x="1597" y="1490.77"></point>
      <point x="1722" y="1394.95"></point>
      <point x="1722" y="1177" type="curve" smooth="yes"></point>
      <point x="1722" y="965.296"></point>
      <point x="1631" y="786"></point>
      <point x="1431" y="786" type="curve"></point>
      <point x="1646" y="774.962"></point>
      <point x="1824" y="687.054"></point>
    </contour>
    <contour>
      <point x="979" y="893" type="line" smooth="yes"></point>
      <point x="1107" y="893"></point>
      <point x="1184" y="912.605"></point>
      <point x="1184" y="1044" type="curve" smooth="yes"></point>
      <point x="1184" y="1167.33"></point>
      <point x="1100" y="1180"></point>
      <point x="979" y="1180" type="curve" smooth="yes"></point>
      <point x="885" y="1180" type="line"></point>
      <point x="885" y="893" type="line"></point>
    </contour>
    <contour>
      <point x="979" y="393" type="line" smooth="yes"></point>
      <point x="1108" y="393"></point>
      <point x="1184" y="413.087"></point>
      <point x="1184" y="545" type="curve" smooth="yes"></point>
      <point x="1184" y="667.741"></point>
      <point x="1099" y="680"></point>
      <point x="979" y="680" type="curve" smooth="yes"></point>
      <point x="885" y="680" type="line"></point>
      <point x="885" y="393" type="line"></point>
    </contour>
  </outline>
</glyph>
<glyph name="C" format="1">
  <advance width="1761"></advance>
  <unicode hex="0043"></unicode>
  <outline>
    <contour>
      <point x="1046" y="1113" type="curve" smooth="yes"></point>
      <point x="837" y="1113"></point>
      <point x="737" y="963.329"></point>
      <point x="737" y="807.079" type="curve" smooth="yes"></point>
      <point x="737" y="553.756"></point>
      <point x="908" y="473.533"></point>
      <point x="1115" y="473.533" type="curve" smooth="yes"></point>
      <point x="1272" y="473.533"></point>
      <point x="1450" y="520.006"></point>
      <point x="1589" y="572" type="curve"></point>
      <point x="1589" y="84" type="line"></point>
      <point x="1399" y="20.499"></point>
      <point x="1206" y="-18"></point>
      <point x="975" y="-18" type="curve" smooth="yes"></point>
      <point x="445" y="-18"></point>
      <point x="112" y="253.913"></point>
      <point x="112" y="786" type="curve" smooth="yes"></point>
      <point x="112" y="1316.13"></point>
      <point x="438" y="1559"></point>
      <point x="967" y="1559" type="curve" smooth="yes"></point>
      <point x="1221" y="1559"></point>
      <point x="1420" y="1510.09"></point>
      <point x="1589" y="1433" type="curve"></point>
      <point x="1589" y="935" type="line"></point>
      <point x="1288" y="935" type="line"></point>
      <point x="1234" y="1031.67"></point>
      <point x="1158" y="1113"></point>
    </contour>
  </outline>
</glyph>
<glyph name="D" format="1">
  <advance width="1955"></advance>
  <unicode hex="0044"></unicode>
  <outline>
    <contour>
      <point x="1895" y="786" type="curve" smooth="yes"></point>
      <point x="1895" y="187.053"></point>
      <point x="1471" y="0"></point>
      <point x="871" y="0" type="curve" smooth="yes"></point>
      <point x="71" y="0" type="line"></point>
      <point x="71" y="434" type="line"></point>
      <point x="231" y="459" type="line"></point>
      <point x="231" y="1114" type="line"></point>
      <point x="71" y="1139" type="line"></point>
      <point x="71" y="1536" type="line"></point>
      <point x="1268" y="1536" type="line"></point>
      <point x="1644" y="1455.48"></point>
      <point x="1895" y="1241.89"></point>
    </contour>
    <contour>
      <point x="969" y="459" type="line" smooth="yes"></point>
      <point x="1210" y="459"></point>
      <point x="1254" y="549.22"></point>
      <point x="1254" y="786" type="curve" smooth="yes"></point>
      <point x="1254" y="1020.52"></point>
      <point x="1209" y="1114"></point>
      <point x="969" y="1114" type="curve" smooth="yes"></point>
      <point x="871" y="1114" type="line"></point>
      <point x="871" y="459" type="line"></point>
    </contour>
  </outline>
</glyph>
<glyph name="E" format="1">
  <advance width="1684"></advance>
  <unicode hex="0045"></unicode>
  <outline>
    <contour>
      <point x="935" y="354" type="line"></point>
      <point x="1189" y="355.4"></point>
      <point x="1269" y="395.4"></point>
      <point x="1337" y="512" type="curve"></point>
      <point x="1504" y="512" type="line"></point>
      <point x="1504" y="0" type="line"></point>
      <point x="137" y="0" type="line"></point>
      <point x="137" y="434" type="line"></point>
      <point x="295" y="459" type="line"></point>
      <point x="295" y="1075" type="line"></point>
      <point x="137" y="1100" type="line"></point>
      <point x="137" y="1536" type="line"></point>
      <point x="1504" y="1536" type="line"></point>
      <point x="1504" y="1024" type="line"></point>
      <point x="1343" y="1024" type="line"></point>
      <point x="1269" y="1134.81"></point>
      <point x="1205" y="1172"></point>
      <point x="939" y="1172" type="curve" smooth="yes"></point>
      <point x="935" y="1172" type="line"></point>
      <point x="935" y="859" type="line"></point>
      <point x="1235" y="944" type="line"></point>
      <point x="1235" y="590" type="line"></point>
      <point x="935" y="675" type="line"></point>
    </contour>
  </outline>
</glyph>
<glyph name="F" format="1">
  <advance width="1568"></advance>
  <unicode hex="0046"></unicode>
  <outline>
    <contour>
      <point x="951" y="879" type="line"></point>
      <point x="1223" y="944" type="line"></point>
      <point x="1223" y="590" type="line"></point>
      <point x="951" y="655" type="line"></point>
      <point x="951" y="459" type="line"></point>
      <point x="1109" y="430" type="line"></point>
      <point x="1109" y="0" type="line"></point>
      <point x="153" y="0" type="line"></point>
      <point x="153" y="434" type="line"></point>
      <point x="311" y="459" type="line"></point>
      <point x="311" y="1075" type="line"></point>
      <point x="153" y="1100" type="line"></point>
      <point x="153" y="1536" type="line"></point>
      <point x="1420" y="1536" type="line"></point>
      <point x="1420" y="1024" type="line"></point>
      <point x="1252" y="1024" type="line"></point>
      <point x="1180" y="1089.76"></point>
      <point x="1088" y="1152"></point>
      <point x="951" y="1152" type="curve"></point>
    </contour>
  </outline>
</glyph>
<glyph name="G" format="1">
  <advance width="1781"></advance>
  <unicode hex="0047"></unicode>
  <outline>
    <contour>
      <point x="948" y="-18" type="curve" smooth="yes"></point>
      <point x="418" y="-18"></point>
      <point x="104" y="257.193"></point>
      <point x="104" y="786" type="curve" smooth="yes"></point>
      <point x="104" y="1300.63"></point>
      <point x="408" y="1559"></point>
      <point x="919" y="1559" type="curve" smooth="yes"></point>
      <point x="1193" y="1559"></point>
      <point x="1401" y="1514.67"></point>
      <point x="1581" y="1430" type="curve"></point>
      <point x="1581" y="973" type="line"></point>
      <point x="1280" y="973" type="line"></point>
      <point x="1226" y="1049.04"></point>
      <point x="1150" y="1113"></point>
      <point x="1038" y="1113" type="curve" smooth="yes"></point>
      <point x="858" y="1113"></point>
      <point x="745" y="969.988"></point>
      <point x="745" y="786" type="curve" smooth="yes"></point>
      <point x="745" y="569.789"></point>
      <point x="840" y="453"></point>
      <point x="1047" y="453" type="curve" smooth="yes"></point>
      <point x="1099" y="453"></point>
      <point x="1147" y="459.163"></point>
      <point x="1193" y="469" type="curve"></point>
      <point x="1193" y="590" type="line"></point>
      <point x="1001" y="590" type="line"></point>
      <point x="1001" y="864" type="line"></point>
      <point x="1623" y="864" type="line"></point>
      <point x="1623" y="134" type="line"></point>
      <point x="1431" y="54.0205"></point>
      <point x="1212" y="-18"></point>
    </contour>
  </outline>
</glyph>
<glyph name="H" format="1">
  <advance width="2168"></advance>
  <unicode hex="0048"></unicode>
  <outline>
    <contour>
      <point x="29" y="1536" type="line"></point>
      <point x="973" y="1536" type="line"></point>
      <point x="973" y="1100" type="line"></point>
      <point x="825" y="1075" type="line"></point>
      <point x="825" y="886" type="line"></point>
      <point x="1337" y="886" type="line"></point>
      <point x="1337" y="1075" type="line"></point>
      <point x="1189" y="1100" type="line"></point>
      <point x="1189" y="1536" type="line"></point>
      <point x="2133" y="1536" type="line"></point>
      <point x="2133" y="1100" type="line"></point>
      <point x="1977" y="1075" type="line"></point>
      <point x="1977" y="459" type="line"></point>
      <point x="2133" y="434" type="line"></point>
      <point x="2133" y="0" type="line"></point>
      <point x="1189" y="0" type="line"></point>
      <point x="1189" y="434" type="line"></point>
      <point x="1337" y="459" type="line"></point>
      <point x="1337" y="660" type="line"></point>
      <point x="825" y="660" type="line"></point>
      <point x="825" y="459" type="line"></point>
      <point x="973" y="434" type="line"></point>
      <point x="973" y="0" type="line"></point>
      <point x="29" y="0" type="line"></point>
      <point x="29" y="434" type="line"></point>
      <point x="185" y="459" type="line"></point>
      <point x="185" y="1075" type="line"></point>
      <point x="29" y="1100" type="line"></point>
    </contour>
  </outline>
</glyph>
<glyph name="I" format="1">
  <advance width="1510"></advance>
  <unicode hex="0049"></unicode>
  <outline>
    <contour>
      <point x="170" y="1536" type="line"></point>
      <point x="1326" y="1536" type="line"></point>
      <point x="1326" y="1102" type="line"></point>
      <point x="1068" y="1077" type="line"></point>
      <point x="1068" y="459" type="line"></point>
      <point x="1326" y="434" type="line"></point>
      <point x="1326" y="0" type="line"></point>
      <point x="170" y="0" type="line"></point>
      <point x="170" y="434" type="line"></point>
      <point x="428" y="459" type="line"></point>
      <point x="428" y="1077" type="line"></point>
      <point x="170" y="1102" type="line"></point>
    </contour>
  </outline>
</glyph>
<glyph name="J" format="1">
  <advance width="1684"></advance>
  <unicode hex="004A"></unicode>
  <outline>
    <contour>
      <point x="646" y="423" type="curve" smooth="yes"></point>
      <point x="748" y="423"></point>
      <point x="792" y="532.828"></point>
      <point x="792" y="640" type="curve" smooth="yes"></point>
      <point x="792" y="1077" type="line"></point>
      <point x="634" y="1102" type="line"></point>
      <point x="634" y="1536" type="line"></point>
      <point x="1590" y="1536" type="line"></point>
      <point x="1590" y="1102" type="line"></point>
      <point x="1432" y="1077" type="line"></point>
      <point x="1432" y="640" type="line" smooth="yes"></point>
      <point x="1432" y="188.752"></point>
      <point x="1175" y="-18"></point>
      <point x="725" y="-18" type="curve" smooth="yes"></point>
      <point x="488" y="-18"></point>
      <point x="299" y="16.9932"></point>
      <point x="153" y="99" type="curve"></point>
      <point x="153" y="563" type="line"></point>
      <point x="454" y="563" type="line"></point>
      <point x="492" y="490.784"></point>
      <point x="553" y="423"></point>
    </contour>
  </outline>
</glyph>
<glyph name="K" format="1">
  <advance width="1955"></advance>
  <unicode hex="004B"></unicode>
  <outline>
    <contour>
      <point x="1895" y="1130" type="line"></point>
      <point x="1860" y="1130.49"></point>
      <point x="1830" y="1130.85"></point>
      <point x="1803" y="1130.85" type="curve" smooth="yes"></point>
      <point x="1534" y="1130.85"></point>
      <point x="1595" y="1094.53"></point>
      <point x="1448" y="786" type="curve"></point>
      <point x="1615" y="440.4"></point>
      <point x="1560" y="430.4"></point>
      <point x="1894" y="430" type="curve"></point>
      <point x="1894" y="0" type="line"></point>
      <point x="1152" y="0" type="line"></point>
      <point x="869" y="641" type="line"></point>
      <point x="869" y="0" type="line"></point>
      <point x="71" y="0" type="line"></point>
      <point x="71" y="434" type="line"></point>
      <point x="229" y="459" type="line"></point>
      <point x="229" y="1077" type="line"></point>
      <point x="71" y="1102" type="line"></point>
      <point x="71" y="1536" type="line"></point>
      <point x="869" y="1536" type="line"></point>
      <point x="869" y="920" type="line"></point>
      <point x="1152" y="1536" type="line"></point>
      <point x="1894" y="1536" type="line"></point>
    </contour>
  </outline>
</glyph>
<glyph name="L" format="1">
  <advance width="1568"></advance>
  <unicode hex="004C"></unicode>
  <outline>
    <contour>
      <point x="951" y="384" type="line"></point>
      <point x="1080" y="384"></point>
      <point x="1172" y="445.517"></point>
      <point x="1236" y="512" type="curve"></point>
      <point x="1403" y="512" type="line"></point>
      <point x="1403" y="0" type="line"></point>
      <point x="153" y="0" type="line"></point>
      <point x="153" y="434" type="line"></point>
      <point x="311" y="459" type="line"></point>
      <point x="311" y="1077" type="line"></point>
      <point x="153" y="1102" type="line"></point>
      <point x="153" y="1536" type="line"></point>
      <point x="1099" y="1536" type="line"></point>
      <point x="1099" y="1102" type="line"></point>
      <point x="951" y="1077" type="line"></point>
    </contour>
  </outline>
</glyph>
<glyph name="M" format="1">
  <advance width="2265"></advance>
  <unicode hex="004D"></unicode>
  <outline>
    <contour>
      <point x="810" y="749" type="line"></point>
      <point x="810" y="0" type="line"></point>
      <point x="13" y="0" type="line"></point>
      <point x="13" y="434" type="line"></point>
      <point x="171" y="459" type="line"></point>
      <point x="171" y="1077" type="line"></point>
      <point x="13" y="1102" type="line"></point>
      <point x="13" y="1536" type="line"></point>
      <point x="810" y="1536" type="line"></point>
      <point x="1132" y="946" type="line"></point>
      <point x="1451" y="1536" type="line"></point>
      <point x="2249" y="1536" type="line"></point>
      <point x="2249" y="1102" type="line"></point>
      <point x="2091" y="1077" type="line"></point>
      <point x="2091" y="459" type="line"></point>
      <point x="2249" y="434" type="line"></point>
      <point x="2249" y="0" type="line"></point>
      <point x="1451" y="0" type="line"></point>
      <point x="1451" y="749" type="line"></point>
      <point x="1132" y="197" type="line"></point>
    </contour>
  </outline>
</glyph>
<glyph name="N" format="1">
  <advance width="1955"></advance>
  <unicode hex="004E"></unicode>
  <outline>
    <contour>
      <point x="611" y="749" type="line"></point>
      <point x="611" y="459" type="line"></point>
      <point x="739" y="435" type="line"></point>
      <point x="739" y="0" type="line"></point>
      <point x="71" y="0" type="line"></point>
      <point x="71" y="434" type="line"></point>
      <point x="227" y="459" type="line"></point>
      <point x="227" y="1077" type="line"></point>
      <point x="71" y="1102" type="line"></point>
      <point x="71" y="1536" type="line"></point>
      <point x="867" y="1536" type="line"></point>
      <point x="1379" y="749" type="line"></point>
      <point x="1379" y="1075" type="line"></point>
      <point x="1251" y="1102" type="line"></point>
      <point x="1251" y="1536" type="line"></point>
      <point x="1919" y="1536" type="line"></point>
      <point x="1919" y="1102" type="line"></point>
      <point x="1763" y="1077" type="line"></point>
      <point x="1763" y="0" type="line"></point>
      <point x="1122" y="0" type="line"></point>
    </contour>
  </outline>
</glyph>
<glyph name="O" format="1">
  <advance width="1916"></advance>
  <unicode hex="004F"></unicode>
  <outline>
    <contour>
      <point x="1854" y="786" type="curve" smooth="yes"></point>
      <point x="1854" y="234.909"></point>
      <point x="1505" y="-18"></point>
      <point x="957" y="-18" type="curve" smooth="yes"></point>
      <point x="402" y="-18"></point>
      <point x="62" y="232.078"></point>
      <point x="62" y="786" type="curve" smooth="yes"></point>
      <point x="62" y="1320.21"></point>
      <point x="423" y="1559"></point>
      <point x="957" y="1559" type="curve" smooth="yes"></point>
      <point x="1490" y="1559"></point>
      <point x="1854" y="1320.15"></point>
    </contour>
    <contour>
      <point x="1214" y="786" type="curve" smooth="yes"></point>
      <point x="1214" y="979.607"></point>
      <point x="1152" y="1102"></point>
      <point x="957" y="1102" type="curve" smooth="yes"></point>
      <point x="760" y="1102"></point>
      <point x="702" y="979.712"></point>
      <point x="702" y="786" type="curve" smooth="yes"></point>
      <point x="702" y="591.717"></point>
      <point x="760" y="465"></point>
      <point x="957" y="465" type="curve" smooth="yes"></point>
      <point x="1153" y="465"></point>
      <point x="1214" y="591.795"></point>
    </contour>
  </outline>
</glyph>
<glyph name="P" format="1">
  <advance width="1877"></advance>
  <unicode hex="0050"></unicode>
  <outline>
    <contour>
      <point x="1781" y="1065" type="curve" smooth="yes"></point>
      <point x="1781" y="620.352"></point>
      <point x="1339" y="590"></point>
      <point x="885" y="590" type="curve"></point>
      <point x="885" y="459" type="line"></point>
      <point x="1043" y="434" type="line"></point>
      <point x="1043" y="0" type="line"></point>
      <point x="87" y="0" type="line"></point>
      <point x="87" y="434" type="line"></point>
      <point x="245" y="459" type="line"></point>
      <point x="245" y="1077" type="line"></point>
      <point x="87" y="1102" type="line"></point>
      <point x="87" y="1536" type="line"></point>
      <point x="988" y="1536" type="line" smooth="yes"></point>
      <point x="1417" y="1536"></point>
      <point x="1781" y="1487.93"></point>
    </contour>
    <contour>
      <point x="885" y="865" type="line"></point>
      <point x="1044" y="865"></point>
      <point x="1141" y="892.726"></point>
      <point x="1141" y="1053" type="curve" smooth="yes"></point>
      <point x="1141" y="1210.94"></point>
      <point x="1042" y="1237"></point>
      <point x="885" y="1237" type="curve"></point>
    </contour>
  </outline>
</glyph>
<glyph name="Q" format="1">
  <advance width="1916"></advance>
  <unicode hex="0051"></unicode>
  <outline>
    <contour>
      <point x="1251" y="7" type="curve"></point>
      <point x="1306" y="-62.8086"></point>
      <point x="1411" y="-158.8"></point>
      <point x="1600" y="-208" type="curve"></point>
      <point x="1600" y="-459" type="line"></point>
      <point x="894" y="-459" type="line"></point>
      <point x="787" y="-341.475"></point>
      <point x="705" y="-187.378"></point>
      <point x="657" y="-7" type="curve"></point>
      <point x="292" y="79.3535"></point>
      <point x="62" y="333.581"></point>
      <point x="62" y="786" type="curve" smooth="yes"></point>
      <point x="62" y="1319.85"></point>
      <point x="424" y="1559"></point>
      <point x="957" y="1559" type="curve" smooth="yes"></point>
      <point x="1488" y="1559"></point>
      <point x="1854" y="1318.69"></point>
      <point x="1854" y="786" type="curve" smooth="yes"></point>
      <point x="1854" y="352.37"></point>
      <point x="1649" y="79.2002"></point>
    </contour>
    <contour>
      <point x="1214" y="786" type="curve" smooth="yes"></point>
      <point x="1214" y="979.607"></point>
      <point x="1152" y="1102"></point>
      <point x="957" y="1102" type="curve" smooth="yes"></point>
      <point x="760" y="1102"></point>
      <point x="702" y="979.712"></point>
      <point x="702" y="786" type="curve" smooth="yes"></point>
      <point x="702" y="591.717"></point>
      <point x="760" y="465"></point>
      <point x="957" y="465" type="curve" smooth="yes"></point>
      <point x="1153" y="465"></point>
      <point x="1214" y="591.795"></point>
    </contour>
  </outline>
</glyph>
<glyph name="R" format="1">
  <advance width="1916"></advance>
  <unicode hex="0052"></unicode>
  <outline>
    <contour>
      <point x="1468" y="651" type="curve"></point>
      <point x="1570" y="464.777"></point>
      <point x="1620" y="421.268"></point>
      <point x="1817" y="421.268" type="curve" smooth="yes"></point>
      <point x="1832" y="421.268"></point>
      <point x="1848" y="421.527"></point>
      <point x="1866" y="422" type="curve"></point>
      <point x="1866" y="0" type="line"></point>
      <point x="1136" y="0" type="line"></point>
      <point x="1044" y="155.4"></point>
      <point x="994" y="330.4"></point>
      <point x="962" y="549" type="curve"></point>
      <point x="877" y="549" type="line"></point>
      <point x="877" y="0" type="line"></point>
      <point x="79" y="0" type="line"></point>
      <point x="79" y="434" type="line"></point>
      <point x="237" y="459" type="line"></point>
      <point x="237" y="1077" type="line"></point>
      <point x="79" y="1102" type="line"></point>
      <point x="79" y="1536" type="line"></point>
      <point x="980" y="1536" type="line" smooth="yes"></point>
      <point x="1420" y="1536"></point>
      <point x="1772" y="1492.06"></point>
      <point x="1772" y="1055" type="curve" smooth="yes"></point>
      <point x="1772" y="811.518"></point>
      <point x="1648" y="722.296"></point>
    </contour>
    <contour>
      <point x="877" y="844" type="line"></point>
      <point x="1031" y="844"></point>
      <point x="1133" y="863.866"></point>
      <point x="1133" y="1019" type="curve" smooth="yes"></point>
      <point x="1133" y="1171.91"></point>
      <point x="1029" y="1196"></point>
      <point x="877" y="1196" type="curve"></point>
    </contour>
  </outline>
</glyph>
<glyph name="S" format="1">
  <advance width="1626"></advance>
  <unicode hex="0053"></unicode>
  <outline>
    <contour>
      <point x="779" y="1024" type="curve"></point>
      <point x="1188" y="1009.97"></point>
      <point x="1487" y="899.744"></point>
      <point x="1487" y="482" type="curve" smooth="yes"></point>
      <point x="1487" y="100.691"></point>
      <point x="1184" y="-18"></point>
      <point x="798" y="-18" type="curve" smooth="yes"></point>
      <point x="550" y="-18"></point>
      <point x="339" y="7.75781"></point>
      <point x="166" y="99" type="curve"></point>
      <point x="166" y="494" type="line"></point>
      <point x="467" y="494" type="line"></point>
      <point x="522" y="416.938"></point>
      <point x="602" y="354"></point>
      <point x="719" y="354" type="curve" smooth="yes"></point>
      <point x="811" y="354"></point>
      <point x="847" y="404.267"></point>
      <point x="847" y="502" type="curve"></point>
      <point x="487" y="535.469"></point>
      <point x="153" y="640.224"></point>
      <point x="153" y="1033" type="curve" smooth="yes"></point>
      <point x="153" y="1426.02"></point>
      <point x="438" y="1552"></point>
      <point x="832" y="1552" type="curve" smooth="yes"></point>
      <point x="1091" y="1552"></point>
      <point x="1283" y="1510.61"></point>
      <point x="1454" y="1433" type="curve"></point>
      <point x="1454" y="1043" type="line"></point>
      <point x="1153" y="1043" type="line"></point>
      <point x="1099" y="1119.04"></point>
      <point x="1023" y="1183"></point>
      <point x="911" y="1183" type="curve" smooth="yes"></point>
      <point x="817" y="1183"></point>
      <point x="779" y="1121.97"></point>
    </contour>
  </outline>
</glyph>
<glyph name="T" format="1">
  <advance width="1606"></advance>
  <unicode hex="0054"></unicode>
  <outline>
    <contour>
      <point x="479" y="1152" type="line"></point>
      <point x="373" y="1152"></point>
      <point x="309" y="1084.25"></point>
      <point x="263" y="1024" type="curve"></point>
      <point x="95" y="1024" type="line"></point>
      <point x="95" y="1536" type="line"></point>
      <point x="1503" y="1536" type="line"></point>
      <point x="1503" y="1024" type="line"></point>
      <point x="1335" y="1024" type="line"></point>
      <point x="1288" y="1084.08"></point>
      <point x="1224" y="1152"></point>
      <point x="1119" y="1152" type="curve"></point>
      <point x="1119" y="459" type="line"></point>
      <point x="1277" y="434" type="line"></point>
      <point x="1277" y="0" type="line"></point>
      <point x="321" y="0" type="line"></point>
      <point x="321" y="434" type="line"></point>
      <point x="479" y="459" type="line"></point>
    </contour>
  </outline>
</glyph>
<glyph name="U" format="1">
  <advance width="1897"></advance>
  <unicode hex="0055"></unicode>
  <outline>
    <contour>
      <point x="1249" y="1077" type="line"></point>
      <point x="1091" y="1102" type="line"></point>
      <point x="1091" y="1536" type="line"></point>
      <point x="1889" y="1536" type="line"></point>
      <point x="1889" y="1102" type="line"></point>
      <point x="1731" y="1077" type="line"></point>
      <point x="1731" y="734" type="line" smooth="yes"></point>
      <point x="1731" y="238.688"></point>
      <point x="1486" y="-18"></point>
      <point x="1000" y="-18" type="curve" smooth="yes"></point>
      <point x="463" y="-18"></point>
      <point x="162" y="198.434"></point>
      <point x="162" y="734" type="curve" smooth="yes"></point>
      <point x="162" y="1077" type="line"></point>
      <point x="4" y="1102" type="line"></point>
      <point x="4" y="1536" type="line"></point>
      <point x="895" y="1536" type="line"></point>
      <point x="895" y="1102" type="line"></point>
      <point x="737" y="1077" type="line"></point>
      <point x="737" y="754" type="line" smooth="yes"></point>
      <point x="737" y="559.717"></point>
      <point x="796" y="465"></point>
      <point x="993" y="465" type="curve" smooth="yes"></point>
      <point x="1189" y="465"></point>
      <point x="1249" y="559.795"></point>
      <point x="1249" y="754" type="curve" smooth="yes"></point>
    </contour>
  </outline>
</glyph>
<glyph name="V" format="1">
  <advance width="1819"></advance>
  <unicode hex="0056"></unicode>
  <outline>
    <contour>
      <point x="554" y="-1" type="line"></point>
      <point x="145" y="1078" type="line"></point>
      <point x="-36" y="1102" type="line"></point>
      <point x="-36" y="1536" type="line"></point>
      <point x="927" y="1536" type="line"></point>
      <point x="927" y="1102" type="line"></point>
      <point x="817" y="1078" type="line"></point>
      <point x="990" y="509" type="line"></point>
      <point x="1163" y="1078" type="line"></point>
      <point x="1053" y="1102" type="line"></point>
      <point x="1053" y="1536" type="line"></point>
      <point x="1856" y="1536" type="line"></point>
      <point x="1856" y="1102" type="line"></point>
      <point x="1675" y="1078" type="line"></point>
      <point x="1266" y="-1" type="line"></point>
    </contour>
  </outline>
</glyph>
<glyph name="W" format="1">
  <advance width="2594"></advance>
  <unicode hex="0057"></unicode>
  <outline>
    <contour>
      <point x="372" y="-1" type="line"></point>
      <point x="-36" y="1078" type="line"></point>
      <point x="-218" y="1102" type="line"></point>
      <point x="-218" y="1536" type="line"></point>
      <point x="782" y="1536" type="line"></point>
      <point x="782" y="1102" type="line"></point>
      <point x="672" y="1078" type="line"></point>
      <point x="845" y="509" type="line"></point>
      <point x="1018" y="1078" type="line"></point>
      <point x="908" y="1102" type="line"></point>
      <point x="908" y="1536" type="line"></point>
      <point x="1879" y="1536" type="line"></point>
      <point x="1879" y="1102" type="line"></point>
      <point x="1769" y="1078" type="line"></point>
      <point x="1942" y="509" type="line"></point>
      <point x="2115" y="1078" type="line"></point>
      <point x="2005" y="1102" type="line"></point>
      <point x="2005" y="1536" type="line"></point>
      <point x="2771" y="1536" type="line"></point>
      <point x="2771" y="1102" type="line"></point>
      <point x="2590" y="1078" type="line"></point>
      <point x="2181" y="-1" type="line"></point>
      <point x="1469" y="-1" type="line"></point>
      <point x="1276" y="587" type="line"></point>
      <point x="1084" y="-1" type="line"></point>
    </contour>
  </outline>
</glyph>
<glyph name="X" format="1">
  <advance width="2013"></advance>
  <unicode hex="0058"></unicode>
  <outline>
    <contour>
      <point x="1825" y="458" type="line"></point>
      <point x="2007" y="434" type="line"></point>
      <point x="2007" y="0" type="line"></point>
      <point x="963" y="0" type="line"></point>
      <point x="963" y="434" type="line"></point>
      <point x="1073" y="458" type="line"></point>
      <point x="840" y="636" type="line"></point>
      <point x="647" y="458" type="line"></point>
      <point x="837" y="434" type="line"></point>
      <point x="837" y="0" type="line"></point>
      <point x="34" y="0" type="line"></point>
      <point x="34" y="434" type="line"></point>
      <point x="215" y="458" type="line"></point>
      <point x="584" y="788" type="line"></point>
      <point x="225" y="1078" type="line"></point>
      <point x="13" y="1102" type="line"></point>
      <point x="13" y="1536" type="line"></point>
      <point x="1021" y="1536" type="line"></point>
      <point x="1021" y="1102" type="line"></point>
      <point x="911" y="1078" type="line"></point>
      <point x="1170" y="890" type="line"></point>
      <point x="1343" y="1078" type="line"></point>
      <point x="1156" y="1102" type="line"></point>
      <point x="1156" y="1536" type="line"></point>
      <point x="1956" y="1536" type="line"></point>
      <point x="1956" y="1102" type="line"></point>
      <point x="1745" y="1078" type="line"></point>
      <point x="1446" y="768" type="line"></point>
    </contour>
  </outline>
</glyph>
<glyph name="Y" format="1">
  <advance width="1839"></advance>
  <unicode hex="0059"></unicode>
  <outline>
    <contour>
      <point x="423" y="0" type="line"></point>
      <point x="423" y="432" type="line"></point>
      <point x="551" y="464" type="line"></point>
      <point x="112" y="1078" type="line"></point>
      <point x="-69" y="1102" type="line"></point>
      <point x="-69" y="1536" type="line"></point>
      <point x="804" y="1536" type="line"></point>
      <point x="804" y="1102" type="line"></point>
      <point x="704" y="1078" type="line"></point>
      <point x="907" y="764" type="line"></point>
      <point x="1110" y="1078" type="line"></point>
      <point x="1010" y="1102" type="line"></point>
      <point x="1010" y="1536" type="line"></point>
      <point x="1893" y="1536" type="line"></point>
      <point x="1893" y="1102" type="line"></point>
      <point x="1702" y="1078" type="line"></point>
      <point x="1263" y="464" type="line"></point>
      <point x="1391" y="432" type="line"></point>
      <point x="1391" y="0" type="line"></point>
    </contour>
  </outline>
</glyph>
<glyph name="Z" format="1">
  <advance width="1587"></advance>
  <unicode hex="005A"></unicode>
  <outline>
    <contour>
      <point x="946" y="399" type="curve" smooth="yes"></point>
      <point x="1072" y="399"></point>
      <point x="1164" y="452.752"></point>
      <point x="1233" y="512" type="curve"></point>
      <point x="1401" y="512" type="line"></point>
      <point x="1401" y="0" type="line"></point>
      <point x="153" y="0" type="line"></point>
      <point x="153" y="384" type="line"></point>
      <point x="717" y="1152" type="line"></point>
      <point x="568" y="1152"></point>
      <point x="459" y="1092.28"></point>
      <point x="379" y="1024" type="curve"></point>
      <point x="211" y="1024" type="line"></point>
      <point x="211" y="1536" type="line"></point>
      <point x="1401" y="1536" type="line"></point>
      <point x="1401" y="1122" type="line"></point>
      <point x="897" y="402" type="line"></point>
      <point x="913" y="400"></point>
      <point x="930" y="399"></point>
    </contour>
  </outline>
</glyph>
<glyph name="bracketleft" format="1">
  <advance width="1510"></advance>
  <unicode hex="005B"></unicode>
  <outline>
    <contour>
      <point x="868" y="316" type="line"></point>
      <point x="1015" y="316"></point>
      <point x="1147" y="348.878"></point>
      <point x="1253" y="384" type="curve"></point>
      <point x="1253" y="0" type="line"></point>
      <point x="228" y="0" type="line"></point>
      <point x="228" y="1536" type="line"></point>
      <point x="1253" y="1536" type="line"></point>
      <point x="1253" y="1151" type="line"></point>
      <point x="1142" y="1187.83"></point>
      <point x="1016" y="1219"></point>
      <point x="868" y="1219" type="curve"></point>
    </contour>
  </outline>
</glyph>
<glyph name="backslash" format="1">
  <advance width="1335"></advance>
  <unicode hex="005C"></unicode>
  <outline>
    <contour>
      <point x="1169" y="0" type="line"></point>
      <point x="529" y="0" type="line"></point>
      <point x="145" y="1536" type="line"></point>
      <point x="785" y="1536" type="line"></point>
    </contour>
  </outline>
</glyph>
<glyph name="bracketright" format="1">
  <advance width="1490"></advance>
  <unicode hex="005D"></unicode>
  <outline>
    <contour>
      <point x="621" y="1219" type="line"></point>
      <point x="472" y="1219"></point>
      <point x="341" y="1186.31"></point>
      <point x="236" y="1151" type="curve"></point>
      <point x="236" y="1536" type="line"></point>
      <point x="1261" y="1536" type="line"></point>
      <point x="1261" y="0" type="line"></point>
      <point x="236" y="0" type="line"></point>
      <point x="236" y="384" type="line"></point>
      <point x="341" y="348.738"></point>
      <point x="472" y="316"></point>
      <point x="621" y="316" type="curve"></point>
    </contour>
  </outline>
</glyph>
<glyph name="asciicircum" format="1">
  <advance width="1568"></advance>
  <unicode hex="005E"></unicode>
  <outline>
    <contour>
      <point x="71" y="201" type="line"></point>
      <point x="480" y="1280" type="line"></point>
      <point x="1070" y="1280" type="line"></point>
      <point x="1479" y="201" type="line"></point>
      <point x="967" y="201" type="line"></point>
      <point x="775" y="841" type="line"></point>
      <point x="583" y="201" type="line"></point>
    </contour>
  </outline>
</glyph>
<glyph name="underscore" format="1">
  <advance width="1258"></advance>
  <unicode hex="005F"></unicode>
  <outline>
    <contour>
      <point x="976" y="224" type="line"></point>
      <point x="976" y="-32" type="line"></point>
      <point x="278" y="-32" type="line"></point>
      <point x="278" y="224" type="line"></point>
    </contour>
  </outline>
</glyph>
<glyph name="grave" format="1">
  <advance width="1355"></advance>
  <unicode hex="0060"></unicode>
  <outline>
    <contour>
      <point x="385" y="2304" type="line"></point>
      <point x="875" y="2304" type="line"></point>
      <point x="1214" y="1664" type="line"></point>
      <point x="789" y="1664" type="line"></point>
    </contour>
  </outline>
</glyph>
<glyph name="a" format="1">
  <advance width="1703"></advance>
  <unicode hex="0061"></unicode>
  <outline>
    <contour>
      <point x="1090" y="0" type="line"></point>
      <point x="1040" y="237" type="line"></point>
      <point x="647" y="237" type="line"></point>
      <point x="597" y="0" type="line"></point>
      <point x="62" y="0" type="line"></point>
      <point x="62" y="464" type="line"></point>
      <point x="178" y="487" type="line"></point>
      <point x="455" y="1408" type="line"></point>
      <point x="1231" y="1408" type="line"></point>
      <point x="1510" y="487" type="line"></point>
      <point x="1625" y="464" type="line"></point>
      <point x="1625" y="0" type="line"></point>
    </contour>
    <contour>
      <point x="708" y="553" type="line"></point>
      <point x="979" y="553" type="line"></point>
      <point x="843" y="1106" type="line"></point>
    </contour>
  </outline>
</glyph>
<glyph name="b" format="1">
  <advance width="1800"></advance>
  <unicode hex="0062"></unicode>
  <outline>
    <contour>
      <point x="1717" y="422" type="curve" smooth="yes"></point>
      <point x="1717" y="109.387"></point>
      <point x="1524" y="0"></point>
      <point x="1203" y="0" type="curve" smooth="yes"></point>
      <point x="112" y="0" type="line"></point>
      <point x="112" y="399" type="line"></point>
      <point x="232" y="422" type="line"></point>
      <point x="232" y="1025" type="line"></point>
      <point x="112" y="1048" type="line"></point>
      <point x="112" y="1408" type="line"></point>
      <point x="1326" y="1408" type="line"></point>
      <point x="1500" y="1366.8"></point>
      <point x="1621" y="1283.09"></point>
      <point x="1621" y="1083" type="curve" smooth="yes"></point>
      <point x="1621" y="890.367"></point>
      <point x="1538" y="737.034"></point>
      <point x="1367" y="724.5" type="curve" smooth="yes"></point>
      <point x="1347" y="723" type="line"></point>
      <point x="1547" y="711.869"></point>
      <point x="1717" y="634.712"></point>
    </contour>
    <contour>
      <point x="922" y="822" type="line" smooth="yes"></point>
      <point x="1045" y="822"></point>
      <point x="1115" y="843.17"></point>
      <point x="1115" y="970" type="curve" smooth="yes"></point>
      <point x="1115" y="1090.23"></point>
      <point x="1040" y="1106"></point>
      <point x="922" y="1106" type="curve" smooth="yes"></point>
      <point x="834" y="1106" type="line"></point>
      <point x="834" y="822" type="line"></point>
    </contour>
    <contour>
      <point x="922" y="342" type="line" smooth="yes"></point>
      <point x="1045" y="342"></point>
      <point x="1115" y="364.257"></point>
      <point x="1115" y="491" type="curve" smooth="yes"></point>
      <point x="1115" y="610.688"></point>
      <point x="1039" y="626"></point>
      <point x="922" y="626" type="curve" smooth="yes"></point>
      <point x="834" y="626" type="line"></point>
      <point x="834" y="342" type="line"></point>
    </contour>
  </outline>
</glyph>
<glyph name="c" format="1">
  <advance width="1703"></advance>
  <unicode hex="0063"></unicode>
  <outline>
    <contour>
      <point x="1007" y="1024" type="curve" smooth="yes"></point>
      <point x="839" y="1024"></point>
      <point x="732" y="894.46"></point>
      <point x="732" y="723" type="curve" smooth="yes"></point>
      <point x="732" y="515.626"></point>
      <point x="839" y="419"></point>
      <point x="1043" y="419" type="curve" smooth="yes"></point>
      <point x="1211" y="419"></point>
      <point x="1360" y="460.69"></point>
      <point x="1517" y="508" type="curve"></point>
      <point x="1517" y="73" type="line"></point>
      <point x="1317" y="12.333"></point>
      <point x="1124" y="-18"></point>
      <point x="940" y="-18" type="curve" smooth="yes"></point>
      <point x="443" y="-18"></point>
      <point x="129" y="225.47"></point>
      <point x="129" y="723" type="curve" smooth="yes"></point>
      <point x="129" y="1221"></point>
      <point x="435" y="1446"></point>
      <point x="933" y="1446" type="curve" smooth="yes"></point>
      <point x="1171" y="1446"></point>
      <point x="1358" y="1401.49"></point>
      <point x="1517" y="1330" type="curve"></point>
      <point x="1517" y="895" type="line"></point>
      <point x="1234" y="895" type="line"></point>
      <point x="1182" y="965.394"></point>
      <point x="1112" y="1024"></point>
    </contour>
  </outline>
</glyph>
<glyph name="d" format="1">
  <advance width="1877"></advance>
  <unicode hex="0064"></unicode>
  <outline>
    <contour>
      <point x="1788" y="723" type="curve" smooth="yes"></point>
      <point x="1788" y="166.445"></point>
      <point x="1383" y="0"></point>
      <point x="826" y="0" type="curve" smooth="yes"></point>
      <point x="104" y="0" type="line"></point>
      <point x="104" y="399" type="line"></point>
      <point x="224" y="422" type="line"></point>
      <point x="224" y="1025" type="line"></point>
      <point x="104" y="1048" type="line"></point>
      <point x="104" y="1408" type="line"></point>
      <point x="1199" y="1408" type="line"></point>
      <point x="1548" y="1333.44"></point>
      <point x="1788" y="1145.71"></point>
    </contour>
    <contour>
      <point x="918" y="422" type="line" smooth="yes"></point>
      <point x="1137" y="422"></point>
      <point x="1186" y="501.304"></point>
      <point x="1186" y="723" type="curve" smooth="yes"></point>
      <point x="1186" y="940.373"></point>
      <point x="1138" y="1025"></point>
      <point x="918" y="1025" type="curve" smooth="yes"></point>
      <point x="826" y="1025" type="line"></point>
      <point x="826" y="422" type="line"></point>
    </contour>
  </outline>
</glyph>
<glyph name="e" format="1">
  <advance width="1606"></advance>
  <unicode hex="0065"></unicode>
  <outline>
    <contour>
      <point x="892" y="402" type="line"></point>
      <point x="1047" y="402"></point>
      <point x="1181" y="442.844"></point>
      <point x="1269" y="512" type="curve"></point>
      <point x="1406" y="512" type="line"></point>
      <point x="1406" y="0" type="line"></point>
      <point x="170" y="0" type="line"></point>
      <point x="170" y="399" type="line"></point>
      <point x="290" y="422" type="line"></point>
      <point x="290" y="989" type="line"></point>
      <point x="170" y="1012" type="line"></point>
      <point x="170" y="1408" type="line"></point>
      <point x="1406" y="1408" type="line"></point>
      <point x="1406" y="896" type="line"></point>
      <point x="1269" y="896" type="line"></point>
      <point x="1180" y="963.242"></point>
      <point x="1047" y="1006"></point>
      <point x="892" y="1006" type="curve"></point>
      <point x="892" y="789" type="line"></point>
      <point x="1169" y="848" type="line"></point>
      <point x="1169" y="563" type="line"></point>
      <point x="892" y="623" type="line"></point>
    </contour>
  </outline>
</glyph>
<glyph name="f" format="1">
  <advance width="1606"></advance>
  <unicode hex="0066"></unicode>
  <outline>
    <contour>
      <point x="941" y="422" type="line"></point>
      <point x="1151" y="399" type="line"></point>
      <point x="1151" y="0" type="line"></point>
      <point x="913" y="0" type="line"></point>
      <point x="551" y="0" type="line"></point>
      <point x="129" y="0" type="line"></point>
      <point x="129" y="399" type="line"></point>
      <point x="339" y="422" type="line"></point>
      <point x="339" y="989" type="line"></point>
      <point x="129" y="1012" type="line"></point>
      <point x="129" y="1411" type="line"></point>
      <point x="1151" y="1411" type="line"></point>
      <point x="1151" y="1408" type="line"></point>
      <point x="1494" y="1408" type="line"></point>
      <point x="1452" y="866" type="line"></point>
      <point x="1345" y="866" type="line"></point>
      <point x="1259" y="929.452"></point>
      <point x="1117" y="982.266"></point>
      <point x="941" y="987.563" type="curve"></point>
      <point x="941" y="737.993" type="line"></point>
      <point x="1199" y="818" type="line"></point>
      <point x="1199" y="513" type="line"></point>
      <point x="941" y="585.168" type="line"></point>
    </contour>
  </outline>
</glyph>
<glyph name="g" format="1">
  <advance width="1703"></advance>
  <unicode hex="0067"></unicode>
  <outline>
    <contour>
      <point x="913" y="-18" type="curve" smooth="yes"></point>
      <point x="421" y="-18"></point>
      <point x="120" y="229.382"></point>
      <point x="120" y="723" type="curve" smooth="yes"></point>
      <point x="120" y="1221.1"></point>
      <point x="426" y="1446"></point>
      <point x="924" y="1446" type="curve" smooth="yes"></point>
      <point x="1162" y="1446"></point>
      <point x="1349" y="1401.49"></point>
      <point x="1508" y="1330" type="curve"></point>
      <point x="1508" y="895" type="line"></point>
      <point x="1225" y="895" type="line"></point>
      <point x="1173" y="968.684"></point>
      <point x="1121" y="1024"></point>
      <point x="998" y="1024" type="curve" smooth="yes"></point>
      <point x="817" y="1024"></point>
      <point x="723" y="908.483"></point>
      <point x="723" y="723" type="curve" smooth="yes"></point>
      <point x="723" y="505.922"></point>
      <point x="792" y="399"></point>
      <point x="1006" y="399" type="curve" smooth="yes"></point>
      <point x="1066" y="399"></point>
      <point x="1112" y="406.992"></point>
      <point x="1164" y="423" type="curve"></point>
      <point x="1164" y="537" type="line"></point>
      <point x="963" y="537" type="line"></point>
      <point x="963" y="783" type="line"></point>
      <point x="1548" y="783" type="line"></point>
      <point x="1548" y="119" type="line"></point>
      <point x="1367" y="43.3535"></point>
      <point x="1165" y="-18"></point>
    </contour>
  </outline>
</glyph>
<glyph name="h" format="1">
  <advance width="2071"></advance>
  <unicode hex="0068"></unicode>
  <outline>
    <contour>
      <point x="62" y="1408" type="line"></point>
      <point x="904" y="1408" type="line"></point>
      <point x="904" y="1012" type="line"></point>
      <point x="784" y="989" type="line"></point>
      <point x="784" y="824" type="line"></point>
      <point x="1265" y="824" type="line"></point>
      <point x="1265" y="989" type="line"></point>
      <point x="1145" y="1012" type="line"></point>
      <point x="1145" y="1413" type="line"></point>
      <point x="1987" y="1413" type="line"></point>
      <point x="1987" y="1012" type="line"></point>
      <point x="1867" y="989" type="line"></point>
      <point x="1867" y="422" type="line"></point>
      <point x="1987" y="399" type="line"></point>
      <point x="1987" y="0" type="line"></point>
      <point x="1145" y="0" type="line"></point>
      <point x="1145" y="399" type="line"></point>
      <point x="1265" y="422" type="line"></point>
      <point x="1265" y="589" type="line"></point>
      <point x="784" y="589" type="line"></point>
      <point x="784" y="422" type="line"></point>
      <point x="904" y="399" type="line"></point>
      <point x="904" y="0" type="line"></point>
      <point x="62" y="0" type="line"></point>
      <point x="62" y="399" type="line"></point>
      <point x="182" y="422" type="line"></point>
      <point x="182" y="989" type="line"></point>
      <point x="62" y="1012" type="line"></point>
    </contour>
  </outline>
</glyph>
<glyph name="i" format="1">
  <advance width="1413"></advance>
  <unicode hex="0069"></unicode>
  <outline>
    <contour>
      <point x="999" y="422" type="line"></point>
      <point x="1209" y="399" type="line"></point>
      <point x="1209" y="0" type="line"></point>
      <point x="187" y="0" type="line"></point>
      <point x="187" y="399" type="line"></point>
      <point x="397" y="422" type="line"></point>
      <point x="397" y="989" type="line"></point>
      <point x="187" y="1012" type="line"></point>
      <point x="187" y="1411" type="line"></point>
      <point x="1209" y="1411" type="line"></point>
      <point x="1209" y="1012" type="line"></point>
      <point x="999" y="989" type="line"></point>
    </contour>
  </outline>
</glyph>
<glyph name="j" format="1">
  <advance width="1529"></advance>
  <unicode hex="006A"></unicode>
  <outline>
    <contour>
      <point x="529" y="389" type="curve" smooth="yes"></point>
      <point x="623" y="389"></point>
      <point x="667" y="489.662"></point>
      <point x="667" y="589" type="curve" smooth="yes"></point>
      <point x="667" y="991" type="line"></point>
      <point x="546" y="1014" type="line"></point>
      <point x="546" y="1408" type="line"></point>
      <point x="1389" y="1408" type="line"></point>
      <point x="1389" y="1014" type="line"></point>
      <point x="1268" y="991" type="line"></point>
      <point x="1268" y="589" type="line" smooth="yes"></point>
      <point x="1268" y="166.225"></point>
      <point x="1027" y="-18"></point>
      <point x="604" y="-18" type="curve" smooth="yes"></point>
      <point x="373" y="-18"></point>
      <point x="210" y="12.8594"></point>
      <point x="66" y="87" type="curve"></point>
      <point x="66" y="518" type="line"></point>
      <point x="349" y="518" type="line"></point>
      <point x="385" y="451.55"></point>
      <point x="442" y="389"></point>
    </contour>
  </outline>
</glyph>
<glyph name="k" format="1">
  <advance width="1839"></advance>
  <unicode hex="006B"></unicode>
  <outline>
    <contour>
      <point x="1388" y="725" type="curve"></point>
      <point x="1501" y="544.175"></point>
      <point x="1622" y="356.087"></point>
      <point x="1767" y="204" type="curve"></point>
      <point x="1767" y="0" type="line"></point>
      <point x="1092" y="0" type="line"></point>
      <point x="826" y="590" type="line"></point>
      <point x="826" y="0" type="line"></point>
      <point x="104" y="0" type="line"></point>
      <point x="104" y="399" type="line"></point>
      <point x="224" y="422" type="line"></point>
      <point x="224" y="991" type="line"></point>
      <point x="104" y="1014" type="line"></point>
      <point x="104" y="1408" type="line"></point>
      <point x="826" y="1408" type="line"></point>
      <point x="826" y="846" type="line"></point>
      <point x="1092" y="1408" type="line"></point>
      <point x="1740" y="1408" type="line"></point>
      <point x="1740" y="1154" type="line"></point>
      <point x="1600" y="1035.37"></point>
      <point x="1484" y="882.839"></point>
    </contour>
  </outline>
</glyph>
<glyph name="l" format="1">
  <advance width="1510"></advance>
  <unicode hex="006C"></unicode>
  <outline>
    <contour>
      <point x="899" y="384" type="line"></point>
      <point x="1016" y="384"></point>
      <point x="1099" y="448.345"></point>
      <point x="1155" y="512" type="curve"></point>
      <point x="1322" y="512" type="line"></point>
      <point x="1322" y="0" type="line"></point>
      <point x="178" y="0" type="line"></point>
      <point x="178" y="399" type="line"></point>
      <point x="298" y="422" type="line"></point>
      <point x="298" y="991" type="line"></point>
      <point x="178" y="1014" type="line"></point>
      <point x="178" y="1408" type="line"></point>
      <point x="1020" y="1408" type="line"></point>
      <point x="1020" y="1014" type="line"></point>
      <point x="899" y="991" type="line"></point>
    </contour>
  </outline>
</glyph>
<glyph name="m" format="1">
  <advance width="2148"></advance>
  <unicode hex="006D"></unicode>
  <outline>
    <contour>
      <point x="767" y="689" type="line"></point>
      <point x="767" y="0" type="line"></point>
      <point x="46" y="0" type="line"></point>
      <point x="46" y="399" type="line"></point>
      <point x="166" y="422" type="line"></point>
      <point x="166" y="991" type="line"></point>
      <point x="46" y="1014" type="line"></point>
      <point x="46" y="1408" type="line"></point>
      <point x="767" y="1408" type="line"></point>
      <point x="1070" y="870" type="line"></point>
      <point x="1370" y="1408" type="line"></point>
      <point x="2091" y="1408" type="line"></point>
      <point x="2091" y="1014" type="line"></point>
      <point x="1971" y="991" type="line"></point>
      <point x="1971" y="422" type="line"></point>
      <point x="2091" y="399" type="line"></point>
      <point x="2091" y="0" type="line"></point>
      <point x="1370" y="0" type="line"></point>
      <point x="1370" y="689" type="line"></point>
      <point x="1070" y="181" type="line"></point>
    </contour>
  </outline>
</glyph>
<glyph name="n" format="1">
  <advance width="1897"></advance>
  <unicode hex="006E"></unicode>
  <outline>
    <contour>
      <point x="585" y="739" type="line"></point>
      <point x="585" y="422" type="line"></point>
      <point x="706" y="400" type="line"></point>
      <point x="706" y="0" type="line"></point>
      <point x="104" y="0" type="line"></point>
      <point x="104" y="399" type="line"></point>
      <point x="224" y="422" type="line"></point>
      <point x="224" y="991" type="line"></point>
      <point x="104" y="1014" type="line"></point>
      <point x="104" y="1408" type="line"></point>
      <point x="826" y="1408" type="line"></point>
      <point x="1307" y="649" type="line"></point>
      <point x="1307" y="989" type="line"></point>
      <point x="1187" y="1014" type="line"></point>
      <point x="1187" y="1408" type="line"></point>
      <point x="1788" y="1408" type="line"></point>
      <point x="1788" y="1014" type="line"></point>
      <point x="1668" y="991" type="line"></point>
      <point x="1668" y="422" type="line"></point>
      <point x="1788" y="399" type="line"></point>
      <point x="1788" y="0" type="line"></point>
      <point x="1066" y="0" type="line"></point>
    </contour>
  </outline>
</glyph>
<glyph name="o" format="1">
  <advance width="1839"></advance>
  <unicode hex="006F"></unicode>
  <outline>
    <contour>
      <point x="1763" y="723" type="curve" smooth="yes"></point>
      <point x="1763" y="208.391"></point>
      <point x="1437" y="-18"></point>
      <point x="920" y="-18" type="curve" smooth="yes"></point>
      <point x="407" y="-18"></point>
      <point x="79" y="209.346"></point>
      <point x="79" y="723" type="curve" smooth="yes"></point>
      <point x="79" y="1225.88"></point>
      <point x="419" y="1446"></point>
      <point x="920" y="1446" type="curve" smooth="yes"></point>
      <point x="1419" y="1446"></point>
      <point x="1763" y="1225.54"></point>
    </contour>
    <contour>
      <point x="1162" y="723" type="curve" smooth="yes"></point>
      <point x="1162" y="905.658"></point>
      <point x="1104" y="1020"></point>
      <point x="920" y="1020" type="curve" smooth="yes"></point>
      <point x="737" y="1020"></point>
      <point x="681" y="908.561"></point>
      <point x="681" y="728" type="curve" smooth="yes"></point>
      <point x="681" y="541.684"></point>
      <point x="731" y="418"></point>
      <point x="920" y="418" type="curve" smooth="yes"></point>
      <point x="1105" y="418"></point>
      <point x="1162" y="539.662"></point>
    </contour>
  </outline>
</glyph>
<glyph name="p" format="1">
  <advance width="1800"></advance>
  <unicode hex="0070"></unicode>
  <outline>
    <contour>
      <point x="1684" y="980" type="curve" smooth="yes"></point>
      <point x="1684" y="567.344"></point>
      <point x="1264" y="543"></point>
      <point x="842" y="543" type="curve"></point>
      <point x="842" y="422" type="line"></point>
      <point x="962" y="399" type="line"></point>
      <point x="962" y="0" type="line"></point>
      <point x="120" y="0" type="line"></point>
      <point x="120" y="399" type="line"></point>
      <point x="240" y="422" type="line"></point>
      <point x="240" y="991" type="line"></point>
      <point x="120" y="1014" type="line"></point>
      <point x="120" y="1408" type="line"></point>
      <point x="939" y="1408" type="line" smooth="yes"></point>
      <point x="1336" y="1408"></point>
      <point x="1684" y="1370.79"></point>
    </contour>
    <contour>
      <point x="842" y="796" type="line"></point>
      <point x="999" y="796"></point>
      <point x="1083" y="829.951"></point>
      <point x="1083" y="989" type="curve" smooth="yes"></point>
      <point x="1083" y="1141.08"></point>
      <point x="993" y="1168"></point>
      <point x="842" y="1168" type="curve"></point>
    </contour>
  </outline>
</glyph>
<glyph name="q" format="1">
  <advance width="1839"></advance>
  <unicode hex="0071"></unicode>
  <outline>
    <contour>
      <point x="1266" y="10" type="curve"></point>
      <point x="1314" y="-49.9453"></point>
      <point x="1377" y="-122.33"></point>
      <point x="1425" y="-176" type="curve"></point>
      <point x="1425" y="-407" type="line"></point>
      <point x="952" y="-407" type="line"></point>
      <point x="827" y="-305.075"></point>
      <point x="707" y="-177.394"></point>
      <point x="648" y="-9" type="curve"></point>
      <point x="302" y="68.4424"></point>
      <point x="79" y="298.96"></point>
      <point x="79" y="723" type="curve" smooth="yes"></point>
      <point x="79" y="1225.88"></point>
      <point x="419" y="1446"></point>
      <point x="920" y="1446" type="curve" smooth="yes"></point>
      <point x="1419" y="1446"></point>
      <point x="1763" y="1225.54"></point>
      <point x="1763" y="723" type="curve" smooth="yes"></point>
      <point x="1763" y="327.372"></point>
      <point x="1567" y="103.287"></point>
    </contour>
    <contour>
      <point x="930" y="1020" type="curve" smooth="yes"></point>
      <point x="910" y="1020" type="line" smooth="yes"></point>
      <point x="733" y="1020"></point>
      <point x="681" y="902.464"></point>
      <point x="681" y="728" type="curve" smooth="yes"></point>
      <point x="681" y="541.684"></point>
      <point x="731" y="418"></point>
      <point x="920" y="418" type="curve" smooth="yes"></point>
      <point x="1105" y="418"></point>
      <point x="1162" y="539.662"></point>
      <point x="1162" y="723" type="curve" smooth="yes"></point>
      <point x="1162" y="900.559"></point>
      <point x="1109" y="1020"></point>
    </contour>
  </outline>
</glyph>
<glyph name="r" format="1">
  <advance width="1839"></advance>
  <unicode hex="0072"></unicode>
  <outline>
    <contour>
      <point x="1000" y="1409" type="line" smooth="yes"></point>
      <point x="1408" y="1409"></point>
      <point x="1744" y="1375.83"></point>
      <point x="1744" y="971" type="curve" smooth="yes"></point>
      <point x="1744" y="745.319"></point>
      <point x="1626" y="663.729"></point>
      <point x="1458" y="599" type="curve"></point>
      <point x="1542" y="502.878"></point>
      <point x="1579" y="359.284"></point>
      <point x="1824" y="331" type="curve"></point>
      <point x="1824" y="0" type="line"></point>
      <point x="1166" y="0" type="line"></point>
      <point x="1068" y="152.202"></point>
      <point x="969" y="315.206"></point>
      <point x="916" y="505" type="curve"></point>
      <point x="883" y="505" type="line"></point>
      <point x="883" y="0" type="line"></point>
      <point x="485" y="0" type="line"></point>
      <point x="71" y="0" type="line"></point>
      <point x="71" y="399" type="line"></point>
      <point x="281" y="422" type="line"></point>
      <point x="281" y="989" type="line"></point>
      <point x="71" y="1012" type="line"></point>
      <point x="71" y="1411" type="line"></point>
      <point x="883" y="1411" type="line"></point>
      <point x="883" y="1409" type="line"></point>
    </contour>
    <contour>
      <point x="883" y="1140" type="curve"></point>
      <point x="883" y="776" type="line"></point>
      <point x="1048" y="776"></point>
      <point x="1144" y="803.251"></point>
      <point x="1144" y="957" type="curve" smooth="yes"></point>
      <point x="1144" y="1109.71"></point>
      <point x="1047" y="1140"></point>
    </contour>
  </outline>
</glyph>
<glyph name="s" format="1">
  <advance width="1568"></advance>
  <unicode hex="0073"></unicode>
  <outline>
    <contour>
      <point x="741" y="932" type="curve"></point>
      <point x="1116" y="918.33"></point>
      <point x="1407" y="827.049"></point>
      <point x="1407" y="443" type="curve" smooth="yes"></point>
      <point x="1407" y="81.252"></point>
      <point x="1124" y="-18"></point>
      <point x="759" y="-18" type="curve" smooth="yes"></point>
      <point x="519" y="-18"></point>
      <point x="346" y="11.3115"></point>
      <point x="195" y="87" type="curve"></point>
      <point x="195" y="434" type="line"></point>
      <point x="478" y="434" type="line"></point>
      <point x="522" y="364.535"></point>
      <point x="587" y="306"></point>
      <point x="685" y="306" type="curve" smooth="yes"></point>
      <point x="780" y="306"></point>
      <point x="805" y="370.594"></point>
      <point x="805" y="472" type="curve"></point>
      <point x="473" y="500.679"></point>
      <point x="153" y="590.514"></point>
      <point x="153" y="950" type="curve" smooth="yes"></point>
      <point x="153" y="1321.42"></point>
      <point x="421" y="1446"></point>
      <point x="791" y="1446" type="curve" smooth="yes"></point>
      <point x="1024" y="1446"></point>
      <point x="1202" y="1401"></point>
      <point x="1356" y="1330" type="curve"></point>
      <point x="1356" y="980" type="line"></point>
      <point x="1053" y="980" type="line"></point>
      <point x="1014" y="1052.37"></point>
      <point x="958" y="1118"></point>
      <point x="866" y="1118" type="curve" smooth="yes"></point>
      <point x="769" y="1118"></point>
      <point x="741" y="1035.52"></point>
    </contour>
  </outline>
</glyph>
<glyph name="t" format="1">
  <advance width="1723"></advance>
  <unicode hex="0074"></unicode>
  <outline>
    <contour>
      <point x="561" y="1046" type="line"></point>
      <point x="435" y="1046"></point>
      <point x="287" y="983.414"></point>
      <point x="287" y="866" type="curve"></point>
      <point x="120" y="866" type="line"></point>
      <point x="120" y="1408" type="line"></point>
      <point x="1604" y="1408" type="line"></point>
      <point x="1604" y="866" type="line"></point>
      <point x="1437" y="866" type="line"></point>
      <point x="1437" y="984.77"></point>
      <point x="1287" y="1046"></point>
      <point x="1163" y="1046" type="curve"></point>
      <point x="1163" y="422" type="line"></point>
      <point x="1373" y="399" type="line"></point>
      <point x="1373" y="0" type="line"></point>
      <point x="351" y="0" type="line"></point>
      <point x="351" y="399" type="line"></point>
      <point x="561" y="422" type="line"></point>
    </contour>
  </outline>
</glyph>
<glyph name="u" format="1">
  <advance width="1839"></advance>
  <unicode hex="0075"></unicode>
  <outline>
    <contour>
      <point x="1197" y="745.5" type="line" smooth="yes"></point>
      <point x="1197" y="770.226"></point>
      <point x="1196" y="798.455"></point>
      <point x="1196" y="825.5" type="curve" smooth="yes"></point>
      <point x="1196" y="991" type="line"></point>
      <point x="1076" y="1014" type="line"></point>
      <point x="1076" y="1408" type="line"></point>
      <point x="1770" y="1408" type="line"></point>
      <point x="1770" y="1014" type="line"></point>
      <point x="1649" y="991" type="line"></point>
      <point x="1648" y="971"></point>
      <point x="1648" y="951.5"></point>
      <point x="1648" y="932.5" type="curve" smooth="yes"></point>
      <point x="1648" y="723" type="line" smooth="yes"></point>
      <point x="1648" y="254.062"></point>
      <point x="1417" y="-18"></point>
      <point x="955" y="-18" type="curve" smooth="yes"></point>
      <point x="459" y="-18"></point>
      <point x="174" y="224.254"></point>
      <point x="174" y="723" type="curve" smooth="yes"></point>
      <point x="174" y="991" type="line"></point>
      <point x="54" y="1014" type="line"></point>
      <point x="54" y="1408" type="line"></point>
      <point x="835" y="1408" type="line"></point>
      <point x="835" y="1014" type="line"></point>
      <point x="715" y="991" type="line"></point>
      <point x="715" y="823.5" type="line" smooth="yes"></point>
      <point x="715" y="795.551"></point>
      <point x="716" y="766.836"></point>
      <point x="716" y="741.5" type="curve" smooth="yes"></point>
      <point x="716" y="721" type="line" smooth="yes"></point>
      <point x="716" y="541.288"></point>
      <point x="773" y="428"></point>
      <point x="955" y="428" type="curve" smooth="yes"></point>
      <point x="1138" y="428"></point>
      <point x="1197" y="542.371"></point>
      <point x="1197" y="723" type="curve" smooth="yes"></point>
    </contour>
  </outline>
</glyph>
<glyph name="v" format="1">
  <advance width="1781"></advance>
  <unicode hex="0076"></unicode>
  <outline>
    <contour>
      <point x="538" y="-1" type="line"></point>
      <point x="164" y="992" type="line"></point>
      <point x="21" y="1014" type="line"></point>
      <point x="21" y="1408" type="line"></point>
      <point x="899" y="1408" type="line"></point>
      <point x="899" y="1014" type="line"></point>
      <point x="796" y="992" type="line"></point>
      <point x="958" y="448" type="line"></point>
      <point x="1121" y="992" type="line"></point>
      <point x="1017" y="1014" type="line"></point>
      <point x="1017" y="1408" type="line"></point>
      <point x="1744" y="1408" type="line"></point>
      <point x="1744" y="1014" type="line"></point>
      <point x="1602" y="992" type="line"></point>
      <point x="1228" y="-1" type="line"></point>
    </contour>
  </outline>
</glyph>
<glyph name="w" format="1">
  <advance width="2516"></advance>
  <unicode hex="0077"></unicode>
  <outline>
    <contour>
      <point x="382" y="-1" type="line"></point>
      <point x="-1" y="992" type="line"></point>
      <point x="-144" y="1014" type="line"></point>
      <point x="-144" y="1408" type="line"></point>
      <point x="768" y="1408" type="line"></point>
      <point x="768" y="1014" type="line"></point>
      <point x="664" y="992" type="line"></point>
      <point x="827" y="468" type="line"></point>
      <point x="990" y="992" type="line"></point>
      <point x="886" y="1014" type="line"></point>
      <point x="886" y="1408" type="line"></point>
      <point x="1799" y="1408" type="line"></point>
      <point x="1799" y="1014" type="line"></point>
      <point x="1696" y="992" type="line"></point>
      <point x="1858" y="468" type="line"></point>
      <point x="2021" y="992" type="line"></point>
      <point x="1917" y="1014" type="line"></point>
      <point x="1917" y="1413" type="line"></point>
      <point x="2609" y="1413" type="line"></point>
      <point x="2609" y="1014" type="line"></point>
      <point x="2467" y="992" type="line"></point>
      <point x="2083" y="-1" type="line"></point>
      <point x="1414" y="-1" type="line"></point>
      <point x="1232" y="540" type="line"></point>
      <point x="1052" y="-1" type="line"></point>
    </contour>
  </outline>
</glyph>
<glyph name="x" format="1">
  <advance width="1916"></advance>
  <unicode hex="0078"></unicode>
  <outline>
    <contour>
      <point x="1729" y="421" type="line"></point>
      <point x="1872" y="399" type="line"></point>
      <point x="1872" y="0" type="line"></point>
      <point x="919" y="0" type="line"></point>
      <point x="919" y="399" type="line"></point>
      <point x="1022" y="421" type="line"></point>
      <point x="803" y="585" type="line"></point>
      <point x="622" y="421" type="line"></point>
      <point x="800" y="399" type="line"></point>
      <point x="800" y="0" type="line"></point>
      <point x="74" y="0" type="line"></point>
      <point x="74" y="399" type="line"></point>
      <point x="216" y="421" type="line"></point>
      <point x="563" y="725" type="line"></point>
      <point x="225" y="992" type="line"></point>
      <point x="54" y="1014" type="line"></point>
      <point x="54" y="1408" type="line"></point>
      <point x="979" y="1408" type="line"></point>
      <point x="979" y="1014" type="line"></point>
      <point x="876" y="992" type="line"></point>
      <point x="1113" y="819" type="line"></point>
      <point x="1276" y="992" type="line"></point>
      <point x="1097" y="1014" type="line"></point>
      <point x="1097" y="1408" type="line"></point>
      <point x="1824" y="1408" type="line"></point>
      <point x="1824" y="1014" type="line"></point>
      <point x="1654" y="992" type="line"></point>
      <point x="1373" y="707" type="line"></point>
    </contour>
  </outline>
</glyph>
<glyph name="y" format="1">
  <advance width="1800"></advance>
  <unicode hex="0079"></unicode>
  <outline>
    <contour>
      <point x="441" y="0" type="line"></point>
      <point x="441" y="397" type="line"></point>
      <point x="561" y="427" type="line"></point>
      <point x="148" y="992" type="line"></point>
      <point x="-3" y="1014" type="line"></point>
      <point x="-3" y="1408" type="line"></point>
      <point x="799" y="1408" type="line"></point>
      <point x="799" y="1014" type="line"></point>
      <point x="705" y="992" type="line"></point>
      <point x="896" y="703" type="line"></point>
      <point x="1086" y="992" type="line"></point>
      <point x="992" y="1014" type="line"></point>
      <point x="992" y="1408" type="line"></point>
      <point x="1794" y="1408" type="line"></point>
      <point x="1794" y="1014" type="line"></point>
      <point x="1643" y="992" type="line"></point>
      <point x="1230" y="427" type="line"></point>
      <point x="1351" y="397" type="line"></point>
      <point x="1351" y="0" type="line"></point>
    </contour>
  </outline>
</glyph>
<glyph name="z" format="1">
  <advance width="1529"></advance>
  <unicode hex="007A"></unicode>
  <outline>
    <contour>
      <point x="904" y="365" type="curve" smooth="yes"></point>
      <point x="1019" y="365"></point>
      <point x="1104" y="415.255"></point>
      <point x="1167" y="469" type="curve"></point>
      <point x="1321" y="469" type="line"></point>
      <point x="1321" y="0" type="line"></point>
      <point x="178" y="0" type="line"></point>
      <point x="178" y="352" type="line"></point>
      <point x="695" y="1055" type="line"></point>
      <point x="558" y="1055"></point>
      <point x="457" y="1001.6"></point>
      <point x="385" y="938" type="curve"></point>
      <point x="231" y="938" type="line"></point>
      <point x="231" y="1408" type="line"></point>
      <point x="1321" y="1408" type="line"></point>
      <point x="1321" y="1028" type="line"></point>
      <point x="860" y="368" type="line"></point>
      <point x="874" y="366"></point>
      <point x="889" y="365"></point>
    </contour>
  </outline>
</glyph>
<glyph name="braceleft" format="1">
  <advance width="1316"></advance>
  <unicode hex="007B"></unicode>
  <outline>
    <contour>
      <point x="872" y="-41" type="curve" smooth="yes"></point>
      <point x="381" y="-41"></point>
      <point x="666" y="655"></point>
      <point x="220" y="655" type="curve"></point>
      <point x="220" y="1024" type="line"></point>
      <point x="670" y="1024"></point>
      <point x="350" y="1720"></point>
      <point x="872" y="1720" type="curve" smooth="yes"></point>
      <point x="960" y="1720"></point>
      <point x="1042" y="1713.13"></point>
      <point x="1125" y="1700" type="curve"></point>
      <point x="1125" y="1348" type="line"></point>
      <point x="779" y="1348"></point>
      <point x="1012" y="901.715"></point>
      <point x="756" y="839" type="curve"></point>
      <point x="1002" y="778.536"></point>
      <point x="752" y="331"></point>
      <point x="1125" y="331" type="curve"></point>
      <point x="1125" y="-21" type="line"></point>
      <point x="1042" y="-34.1553"></point>
      <point x="961" y="-41"></point>
    </contour>
  </outline>
</glyph>
<glyph name="bar" format="1">
  <advance width="1122"></advance>
  <unicode hex="007C"></unicode>
  <outline>
    <contour>
      <point x="303" y="1664" type="line"></point>
      <point x="816" y="1664" type="line"></point>
      <point x="816" y="-128" type="line"></point>
      <point x="303" y="-128" type="line"></point>
    </contour>
  </outline>
</glyph>
<glyph name="braceright" format="1">
  <advance width="1316"></advance>
  <unicode hex="007D"></unicode>
  <outline>
    <contour>
      <point x="440" y="1720" type="curve" smooth="yes"></point>
      <point x="930" y="1720"></point>
      <point x="633" y="1024"></point>
      <point x="1092" y="1024" type="curve"></point>
      <point x="1092" y="655" type="line"></point>
      <point x="644" y="655"></point>
      <point x="952" y="-41"></point>
      <point x="440" y="-41" type="curve" smooth="yes"></point>
      <point x="351" y="-41"></point>
      <point x="269" y="-34.1338"></point>
      <point x="187" y="-21" type="curve"></point>
      <point x="187" y="331" type="line"></point>
      <point x="533" y="331"></point>
      <point x="298" y="776.05"></point>
      <point x="556" y="839" type="curve"></point>
      <point x="310" y="899.062"></point>
      <point x="557" y="1348"></point>
      <point x="187" y="1348" type="curve"></point>
      <point x="187" y="1700" type="line"></point>
      <point x="269" y="1713.16"></point>
      <point x="350" y="1720"></point>
    </contour>
  </outline>
</glyph>
<glyph name="asciitilde" format="1">
  <advance width="1355"></advance>
  <unicode hex="007E"></unicode>
  <outline>
    <contour>
      <point x="460" y="1153" type="curve" smooth="yes"></point>
      <point x="608" y="1153"></point>
      <point x="694" y="1038"></point>
      <point x="845" y="1038" type="curve" smooth="yes"></point>
      <point x="968" y="1038"></point>
      <point x="1046" y="1087.62"></point>
      <point x="1124" y="1159" type="curve"></point>
      <point x="1064" y="742" type="line"></point>
      <point x="1028" y="692.224"></point>
      <point x="978" y="661"></point>
      <point x="903" y="661" type="curve" smooth="yes"></point>
      <point x="755" y="661"></point>
      <point x="660" y="757"></point>
      <point x="511" y="757" type="curve" smooth="yes"></point>
      <point x="389" y="757"></point>
      <point x="307" y="715.631"></point>
      <point x="228" y="652" type="curve"></point>
      <point x="290" y="1078" type="line"></point>
      <point x="331" y="1125.26"></point>
      <point x="381" y="1153"></point>
    </contour>
  </outline>
</glyph>
<glyph name="exclamdown" format="1">
  <advance width="769"></advance>
  <unicode hex="00A1"></unicode>
  <outline>
    <contour>
      <point x="65" y="1536" type="line"></point>
      <point x="705" y="1536" type="line"></point>
      <point x="705" y="1152" type="line"></point>
      <point x="65" y="1152" type="line"></point>
    </contour>
    <contour>
      <point x="129" y="1024" type="line"></point>
      <point x="641" y="1024" type="line"></point>
      <point x="769" y="399" type="line"></point>
      <point x="769" y="0" type="line"></point>
      <point x="65" y="0" type="line"></point>
      <point x="0" y="399" type="line"></point>
    </contour>
  </outline>
</glyph>
<glyph name="cent" format="1">
  <advance width="1388"></advance>
  <unicode hex="00A2"></unicode>
  <outline>
    <contour>
      <point x="914" y="419" type="curve" smooth="yes"></point>
      <point x="1080" y="419"></point>
      <point x="1235" y="460.74"></point>
      <point x="1388" y="508" type="curve"></point>
      <point x="1388" y="65" type="line"></point>
      <point x="1256" y="21"></point>
      <point x="1126" y="-9"></point>
      <point x="1000" y="-25" type="curve"></point>
      <point x="1000" y="-258" type="line"></point>
      <point x="615" y="-258" type="line"></point>
      <point x="615" y="-21" type="line"></point>
      <point x="242" y="42.4258"></point>
      <point x="0" y="286.542"></point>
      <point x="0" y="723" type="curve" smooth="yes"></point>
      <point x="0" y="1159.59"></point>
      <point x="232" y="1383.1"></point>
      <point x="615" y="1437" type="curve"></point>
      <point x="615" y="1664" type="line"></point>
      <point x="1000" y="1664" type="line"></point>
      <point x="1000" y="1438" type="line"></point>
      <point x="1148" y="1419.89"></point>
      <point x="1281" y="1389.25"></point>
      <point x="1388" y="1334" type="curve"></point>
      <point x="1388" y="895" type="line"></point>
      <point x="1105" y="895" type="line"></point>
      <point x="1053" y="965.394"></point>
      <point x="983" y="1024"></point>
      <point x="878" y="1024" type="curve" smooth="yes"></point>
      <point x="710" y="1024"></point>
      <point x="603" y="894.46"></point>
      <point x="603" y="723" type="curve" smooth="yes"></point>
      <point x="603" y="515.626"></point>
      <point x="710" y="419"></point>
    </contour>
  </outline>
</glyph>
<glyph name="sterling" format="1">
  <advance width="1280"></advance>
  <unicode hex="00A3"></unicode>
  <outline>
    <contour>
      <point x="638" y="344" type="line"></point>
      <point x="830" y="344"></point>
      <point x="995" y="397.011"></point>
      <point x="1113" y="472" type="curve"></point>
      <point x="1280" y="472" type="line"></point>
      <point x="1280" y="0" type="line"></point>
      <point x="0" y="0" type="line"></point>
      <point x="0" y="434" type="line"></point>
      <point x="37" y="493.529"></point>
      <point x="92" y="551.473"></point>
      <point x="139" y="606" type="curve"></point>
      <point x="0" y="606" type="line"></point>
      <point x="0" y="832" type="line"></point>
      <point x="147" y="832" type="line"></point>
      <point x="53" y="949.333"></point>
      <point x="7" y="1060"></point>
      <point x="7" y="1164" type="curve" smooth="yes"></point>
      <point x="7" y="1499.6"></point>
      <point x="419" y="1576"></point>
      <point x="769" y="1576" type="curve" smooth="yes"></point>
      <point x="982" y="1576"></point>
      <point x="1150" y="1527.95"></point>
      <point x="1280" y="1450" type="curve"></point>
      <point x="1280" y="973" type="line"></point>
      <point x="980" y="973" type="line"></point>
      <point x="959" y="1058.58"></point>
      <point x="895" y="1113"></point>
      <point x="792" y="1113" type="curve" smooth="yes"></point>
      <point x="716" y="1113"></point>
      <point x="643" y="1055.55"></point>
      <point x="643" y="980" type="curve" smooth="yes"></point>
      <point x="643" y="920.753"></point>
      <point x="671" y="872.131"></point>
      <point x="700" y="832" type="curve"></point>
      <point x="1024" y="832" type="line"></point>
      <point x="1024" y="606" type="line"></point>
      <point x="698" y="606" type="line"></point>
    </contour>
  </outline>
</glyph>
<glyph name="currency" format="1">
  <advance width="1176"></advance>
  <unicode hex="00A4"></unicode>
  <outline>
    <contour>
      <point x="1035" y="1226" type="line"></point>
      <point x="1076" y="1156.44"></point>
      <point x="1102" y="1068.76"></point>
      <point x="1102" y="960" type="curve" smooth="yes"></point>
      <point x="1102" y="849.34"></point>
      <point x="1076" y="763.754"></point>
      <point x="1036" y="692" type="curve"></point>
      <point x="1176" y="553" type="line"></point>
      <point x="995" y="372" type="line"></point>
      <point x="854" y="513" type="line"></point>
      <point x="781" y="472.555"></point>
      <point x="693" y="446"></point>
      <point x="588" y="446" type="curve" smooth="yes"></point>
      <point x="484" y="446"></point>
      <point x="393" y="473.816"></point>
      <point x="323" y="514" type="curve"></point>
      <point x="181" y="372" type="line"></point>
      <point x="0" y="553" type="line"></point>
      <point x="142" y="695" type="line"></point>
      <point x="103" y="764.761"></point>
      <point x="78" y="853.16"></point>
      <point x="78" y="960" type="curve" smooth="yes"></point>
      <point x="78" y="1066.88"></point>
      <point x="103" y="1154.2"></point>
      <point x="142" y="1224" type="curve"></point>
      <point x="0" y="1367" type="line"></point>
      <point x="181" y="1548" type="line"></point>
      <point x="325" y="1403" type="line"></point>
      <point x="396" y="1442.28"></point>
      <point x="484" y="1469"></point>
      <point x="588" y="1469" type="curve" smooth="yes"></point>
      <point x="690" y="1469"></point>
      <point x="779" y="1442.14"></point>
      <point x="851" y="1404" type="curve"></point>
      <point x="995" y="1548" type="line"></point>
      <point x="1176" y="1367" type="line"></point>
    </contour>
    <contour>
      <point x="589" y="718" type="curve" smooth="yes"></point>
      <point x="724" y="718"></point>
      <point x="811" y="815.129"></point>
      <point x="811" y="954" type="curve" smooth="yes"></point>
      <point x="811" y="1091.87"></point>
      <point x="722" y="1188"></point>
      <point x="588" y="1188" type="curve" smooth="yes"></point>
      <point x="454" y="1188"></point>
      <point x="369" y="1090.76"></point>
      <point x="369" y="954" type="curve" smooth="yes"></point>
      <point x="369" y="815.422"></point>
      <point x="453" y="718"></point>
    </contour>
  </outline>
</glyph>
<glyph name="yen" format="1">
  <advance width="1913"></advance>
  <unicode hex="00A5"></unicode>
  <outline>
    <contour>
      <point x="189" y="768" type="line"></point>
      <point x="403" y="768" type="line"></point>
      <point x="162" y="1078" type="line"></point>
      <point x="0" y="1102" type="line"></point>
      <point x="0" y="1536" type="line"></point>
      <point x="854" y="1536" type="line"></point>
      <point x="854" y="1102" type="line"></point>
      <point x="754" y="1078" type="line"></point>
      <point x="957" y="768" type="line"></point>
      <point x="1160" y="1078" type="line"></point>
      <point x="1060" y="1102" type="line"></point>
      <point x="1060" y="1536" type="line"></point>
      <point x="1913" y="1536" type="line"></point>
      <point x="1913" y="1102" type="line"></point>
      <point x="1752" y="1078" type="line"></point>
      <point x="1510" y="768" type="line"></point>
      <point x="1725" y="768" type="line"></point>
      <point x="1725" y="512" type="line"></point>
      <point x="1313" y="512" type="line"></point>
      <point x="1313" y="384" type="line"></point>
      <point x="1725" y="384" type="line"></point>
      <point x="1725" y="128" type="line"></point>
      <point x="1313" y="128" type="line"></point>
      <point x="1313" y="0" type="line"></point>
      <point x="601" y="0" type="line"></point>
      <point x="601" y="128" type="line"></point>
      <point x="189" y="128" type="line"></point>
      <point x="189" y="384" type="line"></point>
      <point x="601" y="384" type="line"></point>
      <point x="601" y="512" type="line"></point>
      <point x="189" y="512" type="line"></point>
    </contour>
  </outline>
</glyph>
<glyph name="brokenbar" format="1">
  <advance width="513"></advance>
  <unicode hex="00A6"></unicode>
  <outline>
    <contour>
      <point x="0" y="1664" type="line"></point>
      <point x="513" y="1664" type="line"></point>
      <point x="513" y="896" type="line"></point>
      <point x="0" y="896" type="line"></point>
    </contour>
    <contour>
      <point x="0" y="704" type="line"></point>
      <point x="513" y="704" type="line"></point>
      <point x="513" y="-128" type="line"></point>
      <point x="0" y="-128" type="line"></point>
    </contour>
  </outline>
</glyph>
<glyph name="section" format="1">
  <advance width="1007"></advance>
  <unicode hex="00A7"></unicode>
  <outline>
    <contour>
      <point x="535" y="375" type="curve"></point>
      <point x="260" y="383.332"></point>
      <point x="0" y="431.559"></point>
      <point x="0" y="707" type="curve" smooth="yes"></point>
      <point x="0" y="825.727"></point>
      <point x="37" y="902.335"></point>
      <point x="97" y="962" type="curve"></point>
      <point x="41" y="1009.18"></point>
      <point x="0" y="1075.7"></point>
      <point x="0" y="1175" type="curve" smooth="yes"></point>
      <point x="0" y="1476.3"></point>
      <point x="214" y="1576"></point>
      <point x="512" y="1576" type="curve" smooth="yes"></point>
      <point x="702" y="1576"></point>
      <point x="856" y="1543.21"></point>
      <point x="981" y="1483" type="curve"></point>
      <point x="981" y="1199" type="line"></point>
      <point x="755" y="1199" type="line"></point>
      <point x="714" y="1259.13"></point>
      <point x="658" y="1310"></point>
      <point x="572" y="1310" type="curve" smooth="yes"></point>
      <point x="494" y="1310"></point>
      <point x="472" y="1243.3"></point>
      <point x="472" y="1160" type="curve"></point>
      <point x="746" y="1149.59"></point>
      <point x="1007" y="1105.61"></point>
      <point x="1007" y="828" type="curve" smooth="yes"></point>
      <point x="1007" y="709.342"></point>
      <point x="968" y="631.611"></point>
      <point x="909" y="572" type="curve"></point>
      <point x="964" y="524.838"></point>
      <point x="1007" y="459.262"></point>
      <point x="1007" y="360" type="curve" smooth="yes"></point>
      <point x="1007" y="59.0684"></point>
      <point x="794" y="-41"></point>
      <point x="495" y="-41" type="curve" smooth="yes"></point>
      <point x="305" y="-41"></point>
      <point x="148" y="-9.34082"></point>
      <point x="26" y="52" type="curve"></point>
      <point x="26" y="336" type="line"></point>
      <point x="252" y="336" type="line"></point>
      <point x="292" y="275.869"></point>
      <point x="348" y="225"></point>
      <point x="435" y="225" type="curve" smooth="yes"></point>
      <point x="512" y="225"></point>
      <point x="535" y="291.703"></point>
    </contour>
    <contour>
      <point x="559" y="660" type="line"></point>
      <point x="610" y="673.937"></point>
      <point x="660" y="713.285"></point>
      <point x="660" y="776" type="curve" smooth="yes"></point>
      <point x="660" y="831.25"></point>
      <point x="580" y="847.738"></point>
      <point x="519" y="853" type="curve" smooth="yes"></point>
      <point x="449" y="859" type="line"></point>
      <point x="403" y="843.94"></point>
      <point x="354" y="800.793"></point>
      <point x="354" y="743" type="curve" smooth="yes"></point>
      <point x="354" y="687.552"></point>
      <point x="442" y="676.566"></point>
      <point x="505" y="667" type="curve"></point>
    </contour>
  </outline>
</glyph>
<glyph name="dieresis" format="1">
  <advance width="1169"></advance>
  <unicode hex="00A8"></unicode>
  <outline>
    <contour>
      <point x="744" y="2048" type="line"></point>
      <point x="1169" y="2048" type="line"></point>
      <point x="1169" y="1664" type="line"></point>
      <point x="744" y="1664" type="line"></point>
    </contour>
    <contour>
      <point x="425" y="2048" type="line"></point>
      <point x="425" y="1664" type="line"></point>
      <point x="0" y="1664" type="line"></point>
      <point x="0" y="2048" type="line"></point>
    </contour>
  </outline>
</glyph>
<glyph name="copyright" format="1">
  <advance width="1616"></advance>
  <unicode hex="00A9"></unicode>
  <outline>
    <contour>
      <point x="808" y="-41" type="curve" smooth="yes"></point>
      <point x="338" y="-41"></point>
      <point x="0" y="302.865"></point>
      <point x="0" y="767" type="curve" smooth="yes"></point>
      <point x="0" y="1237.02"></point>
      <point x="343" y="1575"></point>
      <point x="808" y="1575" type="curve" smooth="yes"></point>
      <point x="1277" y="1575"></point>
      <point x="1616" y="1230.95"></point>
      <point x="1616" y="767" type="curve" smooth="yes"></point>
      <point x="1616" y="297.674"></point>
      <point x="1271" y="-41"></point>
    </contour>
    <contour>
      <point x="808" y="1429" type="curve" smooth="yes"></point>
      <point x="422" y="1429"></point>
      <point x="146" y="1148.4"></point>
      <point x="146" y="767" type="curve" smooth="yes"></point>
      <point x="146" y="381.068"></point>
      <point x="426" y="105"></point>
      <point x="808" y="105" type="curve" smooth="yes"></point>
      <point x="1193" y="105"></point>
      <point x="1470" y="385.508"></point>
      <point x="1470" y="767" type="curve" smooth="yes"></point>
      <point x="1470" y="1152.92"></point>
      <point x="1189" y="1429"></point>
    </contour>
    <contour>
      <point x="863" y="947" type="curve" smooth="yes"></point>
      <point x="764" y="947"></point>
      <point x="700" y="869.943"></point>
      <point x="700" y="769" type="curve" smooth="yes"></point>
      <point x="700" y="643.707"></point>
      <point x="760" y="588"></point>
      <point x="884" y="588" type="curve" smooth="yes"></point>
      <point x="980" y="588"></point>
      <point x="1077" y="613.949"></point>
      <point x="1166" y="641" type="curve"></point>
      <point x="1166" y="378" type="line"></point>
      <point x="1063" y="344.128"></point>
      <point x="949" y="318"></point>
      <point x="824" y="318" type="curve" smooth="yes"></point>
      <point x="529" y="318"></point>
      <point x="342" y="472.838"></point>
      <point x="342" y="769" type="curve" smooth="yes"></point>
      <point x="342" y="1065.03"></point>
      <point x="523" y="1200"></point>
      <point x="819" y="1200" type="curve" smooth="yes"></point>
      <point x="960" y="1200"></point>
      <point x="1072" y="1173.82"></point>
      <point x="1166" y="1131" type="curve"></point>
      <point x="1166" y="870" type="line"></point>
      <point x="998" y="870" type="line"></point>
      <point x="968" y="912.549"></point>
      <point x="925" y="947"></point>
    </contour>
  </outline>
</glyph>
<glyph name="ordfeminine" format="1">
  <advance width="1152"></advance>
  <unicode hex="00AA"></unicode>
  <outline>
    <contour>
      <point x="571" y="1535" type="curve" smooth="yes"></point>
      <point x="779" y="1535"></point>
      <point x="977" y="1487.46"></point>
      <point x="1152" y="1430" type="curve"></point>
      <point x="1152" y="544" type="line"></point>
      <point x="710" y="544" type="line"></point>
      <point x="710" y="640" type="line"></point>
      <point x="619" y="571.648"></point>
      <point x="526" y="512"></point>
      <point x="401" y="512" type="curve" smooth="yes"></point>
      <point x="147" y="512"></point>
      <point x="0" y="730.743"></point>
      <point x="0" y="980" type="curve" smooth="yes"></point>
      <point x="0" y="1341.25"></point>
      <point x="212" y="1535"></point>
    </contour>
    <contour>
      <point x="641" y="1310" type="curve" smooth="yes"></point>
      <point x="500" y="1310"></point>
      <point x="469" y="1196.31"></point>
      <point x="469" y="1039" type="curve" smooth="yes"></point>
      <point x="469" y="857.949"></point>
      <point x="531" y="796"></point>
      <point x="710" y="796" type="curve"></point>
      <point x="710" y="1303" type="line"></point>
      <point x="690" y="1307.67"></point>
      <point x="667" y="1310"></point>
    </contour>
  </outline>
</glyph>
<glyph name="logicalnot" format="1">
  <advance width="768"></advance>
  <unicode hex="00AC"></unicode>
  <outline>
    <contour>
      <point x="0" y="896" type="line"></point>
      <point x="768" y="896" type="line"></point>
      <point x="768" y="256" type="line"></point>
      <point x="512" y="256" type="line"></point>
      <point x="512" y="512" type="line"></point>
      <point x="0" y="512" type="line"></point>
    </contour>
  </outline>
</glyph>
<glyph name="registered" format="1">
  <advance width="1616"></advance>
  <unicode hex="00AE"></unicode>
  <outline>
    <contour>
      <point x="808" y="-41" type="curve" smooth="yes"></point>
      <point x="338" y="-41"></point>
      <point x="0" y="302.865"></point>
      <point x="0" y="767" type="curve" smooth="yes"></point>
      <point x="0" y="1237.02"></point>
      <point x="343" y="1575"></point>
      <point x="808" y="1575" type="curve" smooth="yes"></point>
      <point x="1277" y="1575"></point>
      <point x="1616" y="1230.95"></point>
      <point x="1616" y="767" type="curve" smooth="yes"></point>
      <point x="1616" y="297.674"></point>
      <point x="1271" y="-41"></point>
    </contour>
    <contour>
      <point x="808" y="1429" type="curve" smooth="yes"></point>
      <point x="422" y="1429"></point>
      <point x="146" y="1148.4"></point>
      <point x="146" y="767" type="curve" smooth="yes"></point>
      <point x="146" y="381.068"></point>
      <point x="426" y="105"></point>
      <point x="808" y="105" type="curve" smooth="yes"></point>
      <point x="1193" y="105"></point>
      <point x="1470" y="385.508"></point>
      <point x="1470" y="767" type="curve" smooth="yes"></point>
      <point x="1470" y="1152.92"></point>
      <point x="1189" y="1429"></point>
    </contour>
    <contour>
      <point x="1122" y="729" type="curve"></point>
      <point x="1158" y="648.803"></point>
      <point x="1234" y="572.096"></point>
      <point x="1289" y="508" type="curve"></point>
      <point x="1289" y="371" type="line"></point>
      <point x="940" y="371" type="line"></point>
      <point x="895" y="457.898"></point>
      <point x="841" y="563.801"></point>
      <point x="816" y="672" type="curve"></point>
      <point x="798" y="672" type="line"></point>
      <point x="798" y="371" type="line"></point>
      <point x="376" y="371" type="line"></point>
      <point x="376" y="609" type="line"></point>
      <point x="447" y="623" type="line"></point>
      <point x="447" y="962" type="line"></point>
      <point x="376" y="976" type="line"></point>
      <point x="376" y="1214" type="line"></point>
      <point x="854" y="1214" type="line" smooth="yes"></point>
      <point x="1101" y="1214"></point>
      <point x="1289" y="1185.84"></point>
      <point x="1289" y="950" type="curve" smooth="yes"></point>
      <point x="1289" y="816.676"></point>
      <point x="1221" y="766.92"></point>
    </contour>
    <contour>
      <point x="798" y="834" type="line"></point>
      <point x="882" y="834"></point>
      <point x="938" y="845.051"></point>
      <point x="938" y="930" type="curve" smooth="yes"></point>
      <point x="938" y="1013.38"></point>
      <point x="881" y="1028"></point>
      <point x="798" y="1028" type="curve"></point>
    </contour>
  </outline>
</glyph>
<glyph name="macron" format="1">
  <advance width="512"></advance>
  <unicode hex="00AF"></unicode>
  <outline>
    <contour>
      <point x="512" y="1752" type="line"></point>
      <point x="512" y="1536" type="line"></point>
      <point x="0" y="1536" type="line"></point>
      <point x="0" y="1752" type="line"></point>
    </contour>
  </outline>
</glyph>
<glyph name="degree" format="1">
  <advance width="804"></advance>
  <unicode hex="00B0"></unicode>
  <outline>
    <contour>
      <point x="401" y="1576" type="curve" smooth="yes"></point>
      <point x="635" y="1576"></point>
      <point x="804" y="1428.12"></point>
      <point x="804" y="1190" type="curve" smooth="yes"></point>
      <point x="804" y="949.794"></point>
      <point x="637" y="800"></point>
      <point x="401" y="800" type="curve" smooth="yes"></point>
      <point x="165" y="800"></point>
      <point x="0" y="950.905"></point>
      <point x="0" y="1190" type="curve" smooth="yes"></point>
      <point x="0" y="1427.74"></point>
      <point x="166" y="1576"></point>
    </contour>
    <contour>
      <point x="402" y="988" type="curve" smooth="yes"></point>
      <point x="511" y="988"></point>
      <point x="575" y="1073.03"></point>
      <point x="575" y="1185" type="curve" smooth="yes"></point>
      <point x="575" y="1296.05"></point>
      <point x="509" y="1380"></point>
      <point x="401" y="1380" type="curve" smooth="yes"></point>
      <point x="292" y="1380"></point>
      <point x="229" y="1296.27"></point>
      <point x="229" y="1185" type="curve" smooth="yes"></point>
      <point x="229" y="1072.41"></point>
      <point x="292" y="988"></point>
    </contour>
  </outline>
</glyph>
<glyph name="plusminus" format="1">
  <advance width="1024"></advance>
  <unicode hex="00B1"></unicode>
  <outline>
    <contour>
      <point x="0" y="1024" type="line"></point>
      <point x="384" y="1024" type="line"></point>
      <point x="384" y="1408" type="line"></point>
      <point x="640" y="1408" type="line"></point>
      <point x="640" y="1024" type="line"></point>
      <point x="1024" y="1024" type="line"></point>
      <point x="1024" y="768" type="line"></point>
      <point x="640" y="768" type="line"></point>
      <point x="640" y="384" type="line"></point>
      <point x="384" y="384" type="line"></point>
      <point x="384" y="768" type="line"></point>
      <point x="0" y="768" type="line"></point>
    </contour>
    <contour>
      <point x="125" y="256" type="line"></point>
      <point x="893" y="256" type="line"></point>
      <point x="893" y="0" type="line"></point>
      <point x="125" y="0" type="line"></point>
    </contour>
  </outline>
</glyph>
<glyph name="twosuperior" format="1">
  <advance width="871"></advance>
  <unicode hex="00B2"></unicode>
  <outline>
    <contour>
      <point x="0" y="860" type="line"></point>
      <point x="144" y="912.453"></point>
      <point x="439" y="962.965"></point>
      <point x="439" y="1151" type="curve" smooth="yes"></point>
      <point x="439" y="1222.55"></point>
      <point x="395" y="1263"></point>
      <point x="325" y="1263" type="curve" smooth="yes"></point>
      <point x="268" y="1263"></point>
      <point x="226" y="1213.38"></point>
      <point x="204" y="1169" type="curve"></point>
      <point x="0" y="1169" type="line"></point>
      <point x="0" y="1491" type="line"></point>
      <point x="97" y="1545.62"></point>
      <point x="223" y="1576"></point>
      <point x="380" y="1576" type="curve" smooth="yes"></point>
      <point x="655" y="1576"></point>
      <point x="871" y="1475.87"></point>
      <point x="871" y="1203" type="curve" smooth="yes"></point>
      <point x="871" y="966.604"></point>
      <point x="670" y="850.537"></point>
      <point x="482" y="802" type="curve"></point>
      <point x="865" y="802" type="line"></point>
      <point x="865" y="512" type="line"></point>
      <point x="0" y="512" type="line"></point>
    </contour>
  </outline>
</glyph>
<glyph name="threesuperior" format="1">
  <advance width="965"></advance>
  <unicode hex="00B3"></unicode>
  <outline>
    <contour>
      <point x="206" y="839" type="line"></point>
      <point x="247" y="783.449"></point>
      <point x="306" y="743"></point>
      <point x="392" y="743" type="curve" smooth="yes"></point>
      <point x="461" y="743"></point>
      <point x="526" y="774.43"></point>
      <point x="526" y="841" type="curve" smooth="yes"></point>
      <point x="526" y="889.116"></point>
      <point x="489" y="920"></point>
      <point x="440" y="920" type="curve" smooth="yes"></point>
      <point x="263" y="920" type="line"></point>
      <point x="263" y="1123" type="line"></point>
      <point x="440" y="1123" type="line" smooth="yes"></point>
      <point x="489" y="1123"></point>
      <point x="526" y="1153.9"></point>
      <point x="526" y="1202" type="curve" smooth="yes"></point>
      <point x="526" y="1268.57"></point>
      <point x="461" y="1300"></point>
      <point x="392" y="1300" type="curve" smooth="yes"></point>
      <point x="308" y="1300"></point>
      <point x="247" y="1257.3"></point>
      <point x="206" y="1204" type="curve"></point>
      <point x="0" y="1204" type="line"></point>
      <point x="0" y="1489" type="line"></point>
      <point x="128" y="1543.35"></point>
      <point x="282" y="1576"></point>
      <point x="471" y="1576" type="curve" smooth="yes"></point>
      <point x="728" y="1576"></point>
      <point x="965" y="1473.85"></point>
      <point x="965" y="1227" type="curve" smooth="yes"></point>
      <point x="965" y="1118.46"></point>
      <point x="914" y="1050.46"></point>
      <point x="838" y="1021" type="curve"></point>
      <point x="911" y="987.904"></point>
      <point x="965" y="924.945"></point>
      <point x="965" y="816" type="curve" smooth="yes"></point>
      <point x="965" y="570.501"></point>
      <point x="725" y="469"></point>
      <point x="471" y="469" type="curve" smooth="yes"></point>
      <point x="284" y="469"></point>
      <point x="122" y="494.793"></point>
      <point x="0" y="554" type="curve"></point>
      <point x="0" y="839" type="line"></point>
    </contour>
  </outline>
</glyph>
<glyph name="acute" format="1">
  <advance width="829"></advance>
  <unicode hex="00B4"></unicode>
  <outline>
    <contour>
      <point x="425" y="1664" type="line"></point>
      <point x="0" y="1664" type="line"></point>
      <point x="339" y="2304" type="line"></point>
      <point x="829" y="2304" type="line"></point>
    </contour>
  </outline>
</glyph>
<glyph name="paragraph" format="1">
  <advance width="1529"></advance>
  <unicode hex="00B6"></unicode>
  <outline>
    <contour>
      <point x="0" y="980" type="curve" smooth="yes"></point>
      <point x="0" y="1364.4"></point>
      <point x="319" y="1408"></point>
      <point x="710" y="1408" type="curve" smooth="yes"></point>
      <point x="1529" y="1408" type="line"></point>
      <point x="1529" y="1014" type="line"></point>
      <point x="1409" y="991" type="line"></point>
      <point x="1409" y="422" type="line"></point>
      <point x="1529" y="399" type="line"></point>
      <point x="1529" y="0" type="line"></point>
      <point x="1025" y="0" type="line"></point>
      <point x="1025" y="896" type="line"></point>
      <point x="897" y="896" type="line"></point>
      <point x="897" y="0" type="line"></point>
      <point x="393" y="0" type="line"></point>
      <point x="393" y="399" type="line"></point>
      <point x="513" y="422" type="line"></point>
      <point x="513" y="543" type="line"></point>
      <point x="170" y="543"></point>
      <point x="0" y="637.426"></point>
    </contour>
  </outline>
</glyph>
<glyph name="cedilla" format="1">
  <advance width="599"></advance>
  <unicode hex="00B8"></unicode>
  <outline>
    <contour>
      <point x="203" y="-573" type="curve" smooth="yes"></point>
      <point x="292" y="-573"></point>
      <point x="339" y="-532.694"></point>
      <point x="339" y="-442" type="curve" smooth="yes"></point>
      <point x="339" y="-367.9"></point>
      <point x="292" y="-311"></point>
      <point x="220" y="-311" type="curve" smooth="yes"></point>
      <point x="174" y="-311"></point>
      <point x="143" y="-337.214"></point>
      <point x="122" y="-368" type="curve"></point>
      <point x="0" y="-368" type="line"></point>
      <point x="0" y="128" type="line"></point>
      <point x="221" y="128" type="line"></point>
      <point x="221" y="-129" type="line"></point>
      <point x="232" y="-129" type="line" smooth="yes"></point>
      <point x="238" y="-129"></point>
      <point x="245" y="-128"></point>
      <point x="252" y="-128" type="curve"></point>
      <point x="240" y="-117.748"></point>
      <point x="235" y="-110.751"></point>
      <point x="235" y="-106.691" type="curve" smooth="yes"></point>
      <point x="235" y="-103.771"></point>
      <point x="238" y="-102.371"></point>
      <point x="243" y="-102.371" type="curve" smooth="yes"></point>
      <point x="294" y="-102.371"></point>
      <point x="599" y="-265"></point>
      <point x="599" y="-442" type="curve" smooth="yes"></point>
      <point x="599" y="-657.302"></point>
      <point x="462" y="-769"></point>
      <point x="248" y="-769" type="curve" smooth="yes"></point>
      <point x="156" y="-769"></point>
      <point x="73" y="-750.423"></point>
      <point x="0" y="-725" type="curve"></point>
      <point x="0" y="-535" type="line"></point>
      <point x="64" y="-554.557"></point>
      <point x="133" y="-573"></point>
    </contour>
  </outline>
</glyph>
<glyph name="onesuperior" format="1">
  <advance width="597"></advance>
  <unicode hex="00B9"></unicode>
  <outline>
    <contour>
      <point x="0" y="1484" type="line"></point>
      <point x="511" y="1536" type="line"></point>
      <point x="511" y="818" type="line"></point>
      <point x="597" y="801" type="line"></point>
      <point x="597" y="512" type="line"></point>
      <point x="0" y="512" type="line"></point>
      <point x="0" y="801" type="line"></point>
      <point x="85" y="818" type="line"></point>
      <point x="85" y="1195" type="line"></point>
      <point x="0" y="1195" type="line"></point>
    </contour>
  </outline>
</glyph>
<glyph name="ordmasculine" format="1">
  <advance width="1241"></advance>
  <unicode hex="00BA"></unicode>
  <outline>
    <contour>
      <point x="1241" y="1039" type="curve" smooth="yes"></point>
      <point x="1241" y="659.629"></point>
      <point x="996" y="479"></point>
      <point x="620" y="479" type="curve" smooth="yes"></point>
      <point x="243" y="479"></point>
      <point x="0" y="659.132"></point>
      <point x="0" y="1039" type="curve" smooth="yes"></point>
      <point x="0" y="1411.06"></point>
      <point x="250" y="1575"></point>
      <point x="620" y="1575" type="curve" smooth="yes"></point>
      <point x="989" y="1575"></point>
      <point x="1241" y="1410.6"></point>
    </contour>
    <contour>
      <point x="798" y="1039" type="curve" smooth="yes"></point>
      <point x="798" y="1172.4"></point>
      <point x="755" y="1254"></point>
      <point x="620" y="1254" type="curve" smooth="yes"></point>
      <point x="485" y="1254"></point>
      <point x="443" y="1171.79"></point>
      <point x="443" y="1039" type="curve" smooth="yes"></point>
      <point x="443" y="908.165"></point>
      <point x="484" y="822"></point>
      <point x="620" y="822" type="curve" smooth="yes"></point>
      <point x="756" y="822"></point>
      <point x="798" y="907.646"></point>
    </contour>
  </outline>
</glyph>
<glyph name="guillemotright" format="1">
  <advance width="1627"></advance>
  <unicode hex="00BB"></unicode>
  <outline>
    <contour>
      <point x="894" y="789" type="line"></point>
      <point x="894" y="1421" type="line"></point>
      <point x="1627" y="1047" type="line"></point>
      <point x="1627" y="357" type="line"></point>
      <point x="894" y="-17" type="line"></point>
      <point x="894" y="464" type="line"></point>
      <point x="1228" y="627" type="line"></point>
    </contour>
    <contour>
      <point x="0" y="789" type="line"></point>
      <point x="0" y="1421" type="line"></point>
      <point x="733" y="1047" type="line"></point>
      <point x="733" y="357" type="line"></point>
      <point x="0" y="-17" type="line"></point>
      <point x="0" y="464" type="line"></point>
      <point x="334" y="627" type="line"></point>
    </contour>
  </outline>
</glyph>
<glyph name="onequarter" format="1">
  <advance width="2557"></advance>
  <unicode hex="00BC"></unicode>
  <outline>
    <contour>
      <point x="944" y="1536" type="line"></point>
      <point x="1584" y="1536" type="line"></point>
      <point x="1200" y="0" type="line"></point>
      <point x="560" y="0" type="line"></point>
    </contour>
    <contour>
      <point x="0" y="1484" type="line"></point>
      <point x="511" y="1536" type="line"></point>
      <point x="511" y="818" type="line"></point>
      <point x="597" y="801" type="line"></point>
      <point x="597" y="512" type="line"></point>
      <point x="0" y="512" type="line"></point>
      <point x="0" y="801" type="line"></point>
      <point x="85" y="818" type="line"></point>
      <point x="85" y="1195" type="line"></point>
      <point x="0" y="1195" type="line"></point>
    </contour>
    <contour>
      <point x="1476" y="573" type="line"></point>
      <point x="1909" y="1037" type="line"></point>
      <point x="2341" y="1064" type="line"></point>
      <point x="2341" y="573" type="line"></point>
      <point x="2557" y="573" type="line"></point>
      <point x="2557" y="400" type="line"></point>
      <point x="2341" y="400" type="line"></point>
      <point x="2341" y="310" type="line"></point>
      <point x="2428" y="293" type="line"></point>
      <point x="2428" y="0" type="line"></point>
      <point x="1822" y="0" type="line"></point>
      <point x="1822" y="293" type="line"></point>
      <point x="1909" y="310" type="line"></point>
      <point x="1909" y="400" type="line"></point>
      <point x="1476" y="400" type="line"></point>
    </contour>
    <contour>
      <point x="1725" y="573" type="line"></point>
      <point x="1909" y="573" type="line"></point>
      <point x="1909" y="789" type="line"></point>
    </contour>
  </outline>
</glyph>
<glyph name="onehalf" format="1">
  <advance width="2421"></advance>
  <unicode hex="00BD"></unicode>
  <outline>
    <contour>
      <point x="944" y="1536" type="line"></point>
      <point x="1584" y="1536" type="line"></point>
      <point x="1200" y="0" type="line"></point>
      <point x="560" y="0" type="line"></point>
    </contour>
    <contour>
      <point x="0" y="1484" type="line"></point>
      <point x="511" y="1536" type="line"></point>
      <point x="511" y="818" type="line"></point>
      <point x="597" y="801" type="line"></point>
      <point x="597" y="512" type="line"></point>
      <point x="0" y="512" type="line"></point>
      <point x="0" y="801" type="line"></point>
      <point x="85" y="818" type="line"></point>
      <point x="85" y="1195" type="line"></point>
      <point x="0" y="1195" type="line"></point>
    </contour>
    <contour>
      <point x="1550" y="347" type="line"></point>
      <point x="1694" y="399.453"></point>
      <point x="1989" y="449.964"></point>
      <point x="1989" y="638" type="curve" smooth="yes"></point>
      <point x="1989" y="709.539"></point>
      <point x="1945" y="750"></point>
      <point x="1875" y="750" type="curve" smooth="yes"></point>
      <point x="1818" y="750"></point>
      <point x="1776" y="700.384"></point>
      <point x="1754" y="656" type="curve"></point>
      <point x="1550" y="656" type="line"></point>
      <point x="1550" y="978" type="line"></point>
      <point x="1647" y="1032.62"></point>
      <point x="1773" y="1063"></point>
      <point x="1930" y="1063" type="curve" smooth="yes"></point>
      <point x="2205" y="1063"></point>
      <point x="2421" y="962.877"></point>
      <point x="2421" y="690" type="curve" smooth="yes"></point>
      <point x="2421" y="453.607"></point>
      <point x="2220" y="337.534"></point>
      <point x="2032" y="289" type="curve"></point>
      <point x="2415" y="289" type="line"></point>
      <point x="2415" y="-1" type="line"></point>
      <point x="1550" y="-1" type="line"></point>
    </contour>
  </outline>
</glyph>
<glyph name="threequarters" format="1">
  <advance width="2910"></advance>
  <unicode hex="00BE"></unicode>
  <outline>
    <contour>
      <point x="206" y="839" type="line"></point>
      <point x="247" y="783.449"></point>
      <point x="306" y="743"></point>
      <point x="392" y="743" type="curve" smooth="yes"></point>
      <point x="461" y="743"></point>
      <point x="526" y="774.43"></point>
      <point x="526" y="841" type="curve" smooth="yes"></point>
      <point x="526" y="889.116"></point>
      <point x="489" y="920"></point>
      <point x="440" y="920" type="curve" smooth="yes"></point>
      <point x="263" y="920" type="line"></point>
      <point x="263" y="1123" type="line"></point>
      <point x="440" y="1123" type="line" smooth="yes"></point>
      <point x="489" y="1123"></point>
      <point x="526" y="1153.9"></point>
      <point x="526" y="1202" type="curve" smooth="yes"></point>
      <point x="526" y="1268.57"></point>
      <point x="461" y="1300"></point>
      <point x="392" y="1300" type="curve" smooth="yes"></point>
      <point x="308" y="1300"></point>
      <point x="247" y="1257.3"></point>
      <point x="206" y="1204" type="curve"></point>
      <point x="0" y="1204" type="line"></point>
      <point x="0" y="1489" type="line"></point>
      <point x="128" y="1543.35"></point>
      <point x="282" y="1576"></point>
      <point x="471" y="1576" type="curve" smooth="yes"></point>
      <point x="728" y="1576"></point>
      <point x="965" y="1473.85"></point>
      <point x="965" y="1227" type="curve" smooth="yes"></point>
      <point x="965" y="1118.46"></point>
      <point x="914" y="1050.46"></point>
      <point x="838" y="1021" type="curve"></point>
      <point x="911" y="987.903"></point>
      <point x="965" y="924.946"></point>
      <point x="965" y="816" type="curve" smooth="yes"></point>
      <point x="965" y="570.501"></point>
      <point x="725" y="469"></point>
      <point x="471" y="469" type="curve" smooth="yes"></point>
      <point x="284" y="469"></point>
      <point x="122" y="494.793"></point>
      <point x="0" y="554" type="curve"></point>
      <point x="0" y="839" type="line"></point>
    </contour>
    <contour>
      <point x="1297" y="1536" type="line"></point>
      <point x="1937" y="1536" type="line"></point>
      <point x="1553" y="0" type="line"></point>
      <point x="913" y="0" type="line"></point>
    </contour>
    <contour>
      <point x="1829" y="573" type="line"></point>
      <point x="2262" y="1037" type="line"></point>
      <point x="2694" y="1064" type="line"></point>
      <point x="2694" y="573" type="line"></point>
      <point x="2910" y="573" type="line"></point>
      <point x="2910" y="400" type="line"></point>
      <point x="2694" y="400" type="line"></point>
      <point x="2694" y="310" type="line"></point>
      <point x="2781" y="293" type="line"></point>
      <point x="2781" y="0" type="line"></point>
      <point x="2175" y="0" type="line"></point>
      <point x="2175" y="293" type="line"></point>
      <point x="2262" y="310" type="line"></point>
      <point x="2262" y="400" type="line"></point>
      <point x="1829" y="400" type="line"></point>
    </contour>
    <contour>
      <point x="2078" y="573" type="line"></point>
      <point x="2262" y="573" type="line"></point>
      <point x="2262" y="789" type="line"></point>
    </contour>
  </outline>
</glyph>
<glyph name=".notdef" format="1">
  <advance width="544"></advance>
  <outline>
    <contour>
      <point x="0" y="0" type="line"></point>
      <point x="0" y="1365" type="line"></point>
      <point x="544" y="1365" type="line"></point>
      <point x="544" y="0" type="line"></point>
    </contour>
    <contour>
      <point x="68" y="68" type="line"></point>
      <point x="476" y="68" type="line"></point>
      <point x="476" y="1297" type="line"></point>
      <point x="68" y="1297" type="line"></point>
    </contour>
  </outline>
</glyph>
